<?xml version="1.0" encoding="utf-8"?>
<!DOCTYPE svg PUBLIC "-//W3C//DTD SVG 1.1//EN" "http://www.w3.org/Graphics/SVG/1.1/DTD/svg11.dtd">
<svg version="1.1" id="Layer_1" xmlns="http://www.w3.org/2000/svg" xmlns:xlink="http://www.w3.org/1999/xlink" x="0px" y="0px"
	 viewBox="0 0 3222 2343" enable-background="new 0 0 3222 2343" xml:space="preserve">
<g>
	<path d="M1911.844,1552.118c4.3549,1.5175,4.7671,5.1613,4.6987,8.9517c-0.0961,5.3287-0.2916,10.6569-0.5328,15.9813
		c-0.1675,3.6975,0.6229,6.1434,4.9766,7.1028c19.7025,4.3417,37.0958,14.5433,55.3751,22.4727
		c6.0914,2.6426,11.7427,5.9092,18.5577,6.9647c5.4707,0.8474,10.6826,3.088,15.1602,7.0441
		c5.7717,5.0999,12.7784,8.3605,20.0392,10.9905c2.891,1.0471,7.5718,0.8379,6.5356,5.6825
		c-1.0198,4.7681-5.3519,2.3773-9.1635,2.5117c0.8156,3.9333,1.1449,6.8853,6.3142,6.8944
		c8.0853,0.0143,13.0142,4.3079,16.295,11.9591c11.417,26.6257,20.2537,54.1926,30.1243,81.3717
		c4.7625,13.1134,6.353,27.1997,8.855,40.9469c5.0046,27.4983,10.0061,55.0114,12.7695,82.849
		c3.5823,36.0844,7.6982,72.1055,13.0942,107.9602c2.8225,18.7556,6.6394,37.3593,9.7642,56.0721
		c3.7825,22.649,7.7114,45.2706,9.4441,68.225c1.251,16.5803,3.7454,33.0708,4.8506,49.657
		c1.1069,16.6108,4.082,33.0203,4.6335,49.689c0.23,6.9463,1.8433,13.8455,2.8108,20.7686
		c4.2393,30.3223,7.6443,60.7332,9.8347,91.2773c0.7146,9.9622,1.3254,19.9734,3.9458,29.6545
		c0.8496,3.1392-0.3389,5.9104-0.2268,8.8552c-2,0-4,0-6,0c-0.7061-2.894-1.9895-5.7813-2.0239-8.6833
		c-0.2183-18.3564-3.304-36.4617-4.5503-54.7275c-1.0869-15.9309-2.3875-31.8845-4.562-47.6951
		c-3.7192-27.0432-6.8486-54.1548-9.0723-81.3372c-2.6863-32.834-5.9043-65.6045-10.7456-98.1697
		c-4.7957-32.2554-11.0237-64.2972-15.8755-96.5452c-3.855-25.6211-8.2693-51.2014-9.009-77.2288
		c-0.2446-8.6106-1.9607-17.1813-3.0603-25.7632c-0.1665-1.3004-0.3516-3.4922-1.0146-3.6969
		c-6.3628-1.9646-3.5198-6.5012-3.0676-10.3026c0.5544-4.6633,0.7122-9.2909-0.2734-13.9196
		c-1.5247-7.1589-2.9495-14.3397-4.5183-21.4888c-2.4321-11.0807-2.6992-22.5352-5.1494-33.5372
		c-3.8286-17.1885-8.0002-34.3508-14.7346-50.7502c-1.5576-3.7932-2.6821-7.3812-7.1777-8.8024
		c-2.749-0.8691-5.1628-3.8378-3.3232-6.1089c3.3962-4.1923,1.3555-7.6586-0.2229-11.0829
		c-10.9543-23.7687-25.3082-45.3295-43.6593-63.9949c-9.4263-9.5878-21.8156-14.8943-33.8617-20.454
		c-2.0858-0.9625-4.9719-2.4269-6.6812-1.085c-6.7217,5.278-11.8983,0.0564-17.2173-2.2795
		c-9.4408-4.1462-18.3634-9.504-27.887-13.4214c-10.3853-4.272-11.7123-3.2734-15.9501,7.1559
		c-0.6226,1.5322-1.5947,2.9187-2.2915,4.4252c-1.1652,2.5184-1.3805,4.5281,0.8124,7.1473
		c12.3058,14.6991,14.6365,30.1414,2.1935,46.0922c-2.5912,3.3217-1.9121,6.0934-0.6371,9.9598
		c4.1622,12.6213,7.4963,25.4668,3.7645,39.0288c-1.3732,4.99-4.6079,8.8025-6.717,13.2933
		c-7.7385,16.4755-19.5311,29.2772-35.6863,37.6536c-16.5299,8.5709-33.3905,16.5018-50.0179,24.8881
		c-9.2129,4.6466-18.2108,9.7174-27.374,14.4651c-4.0748,2.1115-5.1088,4.7949-2.7643,8.8827
		c3.0298,5.2822,3.9805,11.1797,4.9822,17.1199c4.9219,29.1895,10.0323,58.347,15.0741,87.5164
		c4.249,24.583,8.1949,49.2229,12.8119,73.7366c7.1415,37.9167,15.4214,75.6151,21.8202,113.6781
		c1.595,9.488,3.2566,18.9297,6.2444,28.1938c5.3138,16.4771,10.1465,33.3977,10.9207,50.6138
		c0.7086,15.7549,2.8562,31.0547,6.0035,46.3821c1.6888,8.2249,1.4235,16.5354-0.6196,24.7563
		c-5.3306,21.4492-13.2321,41.6628-25.6411,60.2305c-7.6951,11.5139-15.5975,23.0571-21.2411,35.8547c-4.6666,0-9.3334,0-14,0
		c1.3816-4.855,3.5161-9.375,6.6672-13.2993c8.323-10.365,15.8492-21.3064,23.6555-32.0505
		c17.1948-23.6655,24.4688-49.7078,21.3793-79.0054c-1.1919-11.3035-4.2371-22.2297-5.2084-33.4851
		c-2.4663-28.5767-10.4985-56.1726-14.4113-84.5605c-4.7589-34.5276-13.228-68.5316-19.6292-102.8484
		c-9.8861-52.999-19.8707-105.9808-28.7906-159.1592c-1.7347-10.3422-1.7448-21.2576-7.8085-30.7327
		c-2.2446-3.5076-3.7942-4.9064-7.6714-2.7406c-9.2264,5.1542-19.5433,6.5098-29.7858,7.5476
		c-9.317,0.9438-17.932,4.1841-26.6854,6.0825c-0.8092,3.4926,2.7437,5.3226,1.8676,8.0262
		c-3.0885,9.5303-0.4229,19.199-0.8789,28.7904c-1.0105,21.254-0.8286,42.5204-2.2722,63.8071
		c-1.5267,22.5126,0.2134,45.234,0.1637,67.8633c-0.0548,24.9518,0.9803,49.9398-2.1428,74.8185
		c-1.036,8.2527-1.9197,16.562-2.1854,24.8674c-1.2673,39.594-2.8705,79.1719-7.8744,118.4985
		c-2.3867,18.7593-1.8639,38.0032-8.6742,56.0862c-0.7535,2.0012-0.4242,4.0454,0.2592,5.8787
		c4.0369,10.8318,7.2073,21.9048,15.2086,31.0303c12.701,14.4861,24.5867,29.6868,36.8174,44.585c-4.6666,0-9.3334,0-14,0
		c-0.0393-2.1733-1.3826-3.6851-2.6713-5.2126c-8.3721-9.9231-16.8917-19.7263-25.0789-29.7998
		c-5.2396-6.4468-9.2623-14.0393-15.147-19.7659c-7.4149-7.2158-9.9696-15.4243-9.2712-25.1887
		c0.9288-12.988,3.2411-25.7896,6.8197-38.2585c7.9475-27.6909,11.2406-56.1514,12.7576-84.6658
		c1.166-21.916,3.5465-43.7808,3.6904-65.7454c0.1636-24.9617,2.7087-49.9595,0.0685-74.8738
		c-1.7986-16.9724-1.4652-33.9581-1.1212-50.8871c0.2759-13.5867,2.991-27.1187,4.5229-40.6862
		c1.8331-16.2366,2.6754-32.3824-0.0372-48.7355c-1.3838-8.3419-2.328-17.0212,0.101-25.7455
		c2.1328-7.6603-3.9523-13.8281-11.8761-12.9351c-17.1854,1.9369-34.3546,4.0193-51.5297,6.0474
		c-10.8896,1.2859-21.7118,3.9333-32.743,2.8688c-12.4475-1.2014-22.6504,3.839-32.4153,10.4974
		c-27.1639,18.5229-54.6436,36.5851-80.222,57.3523c-14.9823,12.1641-30.0834,24.1523-44.3773,37.149
		c-20.9581,19.0568-40.1395,39.9185-60.7841,59.2845c-11.4006,10.6945-22.9048,21.2788-34.3329,31.9441
		c-5.6793,5.3002-10.1415,9.6644-8.146,19.7412c2.3976,12.1067,0.4849,25.2009-0.5229,37.7908
		c-0.4958,6.1936,0.7563,13.6667-6.6613,17.7012c-1.051,0.5718-1.215,2.9849-1.5703,4.5945
		c-5.1747,23.4299-8.2477,47.1938-11.3734,70.9568c-1.8654,14.1799-0.6466,28.7322-4.4271,42.6245
		c-5.8578,21.5259-10.6451,26.6548-32.7981,27.4663c-4.3264,0.1587-8.65,0.3884-12.975,0.5852
		c-3.2596-2.2361-6.9863-1.8943-10.6338-1.874c-9.6628,0.0535-19.3297,0.0088-28.9874,0.2751
		c-22.5862,0.6233-44.4904-2.4277-65.3564-11.5103c-13.2032-5.7473-27.5713-7.4836-41.2437-11.73
		c-11.1979-3.4783-21.8976-7.8601-32.5458-12.5017c-7.6707-3.3438-15.3477-6.9324-23.6288-7.7915
		c-7.4811-0.7766-10.5535-6.5693-14.8247-10.8774c-4.4489-4.4873-6.3883-9.8064-5.7375-16.9399
		c1.5699-17.2117,1.6471-34.5588,2.3601-51.8499c0.8784-21.3062,3.0546-42.4915,5.3063-63.6936
		c1.6857-15.8727,4.0055-31.6656,5.5658-47.563c1.6853-17.1696,5.2594-34.1841,8.5693-51.157
		c5.413-27.7571,11.8247-55.328,16.8177-83.1564c6.4296-35.8356,16.6277-70.6644,27.8647-105.1261
		c8.1343-24.9462,18.6506-49.1351,30.093-72.8419c5.3544-11.0936,10.8856-22.0593,17.2019-32.6542
		c14.8917-24.9792,35.8235-41.9351,63.2551-52.2168c29.0619-10.8926,58.5638-19.8715,88.8351-26.3928
		c14.6279-3.1511,29.4364-5.4615,44.1567-8.187c10.796-1.9989,21.5103-4.1954,32.046-7.4899
		c21.2949-6.6587,42.8619-12.3231,65.334-13.3285c4.423-0.198,8.3098-2.364,12.5623-3.1024
		c7.875-1.3673,15.7571-2.4786,23.7981-2.6588c6.4114-0.1436,7.1974-1.2218,6.4694-7.1508
		c-0.8901-7.2495-1.7247-14.5317-4.094-21.5194c-1.1232-3.3127-2.6597-7.1267-6.556-6.2985
		c-11.2355,2.3884-19.3851-5.0653-28.7765-8.3175c-12.673-4.3883-21.2673-12.5326-27.3655-25.4266
		c-14.7615-31.2123-22.7723-63.6442-24.9167-97.9785c-1.6-25.6163-3.0986-51.1746-1.2872-76.8125
		c1.3374-18.9286,3.2126-37.8254,4.2046-56.7703c0.8497-16.2272,0.1174-32.5103,1.5198-49.5702
		c-6.6399,0.2482-12.1893,2.2712-18.0679,2.3337c-25.67,0.2732-39.9911-20.2655-42.2738-39.78
		c-2.1296-18.2076-0.2678-35.8048,7.1539-52.749c3.2006-7.3069,5.7153-14.8944,9.1791-22.123
		c6.215-12.97,16.7621-21.3661,28.9509-27.9281c8.1688-4.3979,17.1257-5.1284,26.2527-3.5427
		c6.9717,1.2113,6.6361,1.1128,8.3276-5.6013c6.6107-26.2412,4.0343-52.9479,4.3303-79.5065
		c0.2897-25.987-2.1324-51.8511-3.7321-77.7519c-0.6786-10.9863,0.4393-21.9551,0.2649-32.9633
		c-0.5762-36.3656-6.0762-72.2972-8.9933-108.4489c-0.7352-9.111-3.9452-18.094-5.2502-27.2941
		c-0.2788-1.9655-1.105-3.869-1.2576-5.8339c-0.4033-5.1918,0.7781-6.4495,6.0494-6.577
		c7.9891-0.1932,15.9806-0.3498,23.9716-0.3788c3.9594-0.0143,5.4407-1.5209,4.3365-5.5139
		c-1.6853-6.095-2.4655-12.379-3.6416-18.5793c-4.4535-23.4789,1.5587-45.5674,8.2697-67.6166
		c0.2893-0.9506,0.6775-1.881,1.1139-2.7748c0.9017-1.8465,1.9744-3.6169,4.4379-3.2097c2.3882,0.3948,3.1576,2.2707,3.3002,4.363
		c0.4755,6.9793,1.2078,13.9652,1.2068,20.9485c-0.0029,20.4713,11.5226,34.65,25.9426,48.9774
		c4.1454-10.7824,9.5229-20.3204,11.3779-30.5003c4.1515-22.7843,18.2753-37.5641,35.5071-51.0211
		c14.1991-11.0886,29.7968-18.3836,47.212-22.4609c6.6282-1.5516,13.3636-1.6438,19.8418-1.1996
		c20.5209,1.4073,41.0548,2.1931,61.5955,3.118c25.6788,1.1563,50.7721,6.5142,75.5092,13.2084
		c6.4745,1.7522,13.0082,2.4424,19.4968,3.6541c33.1812,6.1962,64.8639,17.0156,96.1595,29.4768
		c21.6141,8.6063,43.691,16.1935,65.9283,23.0443c16.4692,5.0737,33.3691,5.2982,49.4935-2.5731
		c2.8557-1.394,5.7538-2.3282,8.191,0.4824c2.6532,3.0597,0.2487,5.8046-1.3525,8.0879
		c-5.7821,8.2454-13.3287,14.8826-21.0323,21.2064c-7.7008,6.3214-15.627,12.4829-25.4459,15.4731
		c-2.4684,0.7517-5.0504,1.6861-6.494,4.8081c4.0674,4.0757,9.9202,5.2341,13.8132,9.5151
		c6.3196,6.9493,11.8033,14.3457,16.5948,22.4231c13.4169,22.6171,26.1426,45.6775,42.0521,66.7355
		c3.943,5.219,8.0427,9.816,15.3112,9.6636c2.5912-0.0544,4.5206,1.0449,5.068,3.8094c0.5083,2.5674-0.3981,4.6286-2.5309,6.0457
		c-13.5623,9.0116-25.3784,20.6871-40.6216,27.1166c-13.1708,5.5554-26.4917,10.7551-39.7557,16.0884
		c-3.1263,1.257-6.4052,1.7291-9.7717,1.8184c-3.7054,0.0981-7.3616,0.4783-9.9543,3.6653l0.1687-0.0913
		c-10.9214,1.2393-21.7178,3.0759-32.3683,5.8947c-12.5573,3.3235-25.3477,5.437-38.2587,7.007
		c-21.613,2.6284-43.2781,1.4199-64.9061,1.0811c-12.9376-0.2026-25.7953-1.6837-38.4454-5.4191
		c-34.4618-10.1761-68.993-20.1654-103.7306-29.3436c-25.3114-6.6876-49.2476-16.3369-72.0966-28.9395
		c-2.9955-1.6521-5.9332-3.8477-10.1691-3.0473c1.3293,9.2778,5.7043,16.9437,7.5468,25.3491
		c2.5276,11.5323,7.6989,21.9705,13.9608,31.8555c2.1775,3.4371,3.4218,7.1917,5.0891,10.8057
		c1.2748,2.7628,1.1702,5.1385-1.0933,7.2431c-2.3702,2.2037-4.8328,1.7994-7.2404,0.059
		c-5.6566-4.0893-12.1904-6.6971-17.7039-11.1342c-7.7719-6.2545-16.3751-11.4711-23.3173-18.7697
		c-2.615-2.7495-4.6741-2.7296-7.2264,0.5429c-4.9424,6.337-9.2598,12.8356-12.2454,20.4418
		c-14.9301,38.0363-23.4263,77.7111-29.869,117.8329c-3.4742,21.6365-3.4564,43.7069-6.2999,65.4808
		c-1.4578,11.1635-4.2142,22.2863-2.826,33.7325c0.3558,2.9357-0.9796,5.3634-3.8995,6.2184
		c-2.687,0.7869-4.7249-0.9208-5.4386-3.2384c-1.3683-4.4425-4.7333-4.9585-8.5133-5.3293
		c-7.0258-0.6895-11.5325-5.5559-13.3921-11.3513c-4.1427-12.9105-22.4867-24.6125-36.1095-21.8944
		c-14.5543,2.9043-25.2773,11.2783-33.219,23.4822c-7.3334,11.269-12.0293,23.7705-15.8866,36.5198
		c-3.9336,13.0013-3.6892,26.5256-0.9987,39.5833c2.6757,12.9858,10.0154,23.506,23.7349,26.991
		c15.0361,3.8193,29.3116,3.3785,38.5557-12.0527c1.5522-2.5911,3.4392-4.5377,6.3374-2.5693
		c2.516,1.7089,2.517,4.5364,1.152,7.1749c-1.6833,3.2538-3.1643,6.6749-5.2842,9.6279c-5.251,7.3147-7.4973,15.4578-7.4403,24.3098
		c0.1306,20.2784,0.7509,40.531-1.6376,60.7841c-1.7523,14.8574-2.7357,29.85-3.1797,44.8085
		c-1.0609,35.7465,2.7142,71.0671,9.9828,106.0909c3.7531,18.0848,10.8068,34.7686,18.8679,51.2051
		c3.3124,6.7542,8.547,11.0664,15.1686,13.7363c8.6353,3.4822,17.4872,6.425,26.2269,9.6511
		c1.5596,0.5754,3.1733,1.5688,4.6445,0.3245c1.8291-1.5469,1.3337-3.7155,0.5011-5.5322
		c-6.0713-13.2494-5.7023-27.8983-9.0659-41.7393c-0.9326-3.8373,0.075-7.8932,3.0709-11.1301
		c6.9471-7.5057,10.7775-16.8468,14.2034-26.1906c4.5728-12.4718,9.3024-25.1262,7.9912-38.7777
		c-0.5439-5.6614-0.8352-11.265-0.728-16.9338c0.3408-17.9994,9.4948-29.458,26.8832-34.5684
		c6.2517-1.8375,11.5077-0.4358,15.6938,3.5371c12.6244,11.981,21.3409,26.4032,23.8859,43.8572
		c1.5306,10.4985,2.8894,21.1271,2.9789,31.7085c0.1713,20.2994,2.8698,40.1384,7.3217,59.9109
		c3.2823,14.5776,9.913,27.4138,18.797,38.9641c3.699,4.8092,8.6,10.5609,16.6155,8.2374c1.3618-0.3948,2.5497,0.0303,3.7784,0.6837
		c15.2567,8.116,31.5881,11.2546,48.8097,12.0405c19.7206,0.9,39.2441,1.957,58.0758-5.6011
		c1.8241-0.7322,3.8623-1.0048,5.8303-1.2844c2.0441-0.2903,4.1923-0.2085,4.765,2.3394c0.4382,1.9496-1.155,2.8787-2.5518,3.811
		c-4.3109,2.8776-9.4301,3.2893-14.2466,4.3535c-24.6837,5.4545-49.4165,11.8209-74.9664,7.8942
		c-19.0231-2.9237-38.0665-6.2244-51.4618-22.8262c-3.5038-4.3425-2.1089-10.2227-6.5802-13.8544
		c-2.8479-2.3129-3.9253-6.0364-5.3503-9.4546c-5.1458-12.3444-8.6135-25.015-10.442-38.3359
		c-2.4015-17.4954-4.1609-34.996-3.5204-52.6233c0.4889-13.4558-0.5323-26.3439-7.8649-38.1337
		c-2.4539-3.9458-4.7417-8.11-6.3102-12.4611c-1.7896-4.9641-5.3224-8.1725-8.9117-11.6555
		c-6.7023-6.5037-14.1685-5.2139-21.3181-1.974c-8.6661,3.9271-11.6753,9.8761-10.05,19.5602
		c3.1027,18.4875,1.8856,36.4539-4.9435,53.9674c-0.7351,1.8854-1.7535,4.0146-0.7582,5.7775
		c2.4719,4.3784,0.132,7.4564-1.9958,10.9421c-3.6401,5.9626-6.735,12.2599-10.4075,18.201
		c-7.1097,11.5018-8.8022,23.3998-3.8767,36.2009c2.0295,5.2743,3.0022,10.9724,5.2058,16.1588
		c3.5447,8.3425,5.3865,17.02,6.6941,25.8987c0.283,1.9207,0.5839,4.4701,1.8654,5.504c5.8849,4.7485,5.4506,11.2725,5.0143,17.4696
		c-0.9117,12.9507-2.405,25.8621-3.7601,38.7792c-0.8475,8.0789-3.4602,15.752-7.9738,22.3583
		c-3.0607,4.4795-5.0996,9.2244-7.255,14.0704c-9.7346,21.8882-16.0013,45.1431-26.41,66.7596
		c-1.0156,2.1096-2.2032,4.3766-1.1241,6.6836c3.5391,7.5652,0.6321,14.9618-2.439,21.108
		c-8.1626,16.3359-14.5228,33.4724-24.1135,49.2275c-17.6018,28.9148-39.0667,54.7804-61.4794,79.7756
		c-18.8604,21.0341-40.3549,39.6652-62.1926,57.5967c-20.3757,16.7312-39.5537,34.3944-57.015,54.2196
		c-16.4595,18.6877-35.2074,35.3202-50.603,55.0496c-4.4967,5.7625-9.1006,11.4458-14.0636,16.8702
		c-8.5199,9.312-16.4315,19.1809-24.5929,28.8206c-10.738,12.6829-21.139,25.6709-32.3051,37.9646
		c-9.848,10.8425-19.3253,21.957-28.6633,33.2114c6.6221,5.6426,6.6776,6.4766,0.9708,10.9607
		c-7.3949,5.8105-9.0431,11.3857-4.7346,19.5225c10.0179,18.9192,25.3368,30.4158,47.1504,32.072
		c5.3949,0.4097,11.723,2.0867,12.8157-6.4797c0.0898-0.7039,1.4904-1.2026,2.2157-1.8687
		c16.8975-15.5166,34.0549-30.7622,50.6058-46.6401c19.7014-18.9004,39.6423-37.4707,60.6866-54.9067
		c13.0203-10.7876,25.0532-22.7869,37.296-34.4863c12.4969-11.9423,24.1471-24.829,37.1696-36.1503
		c22.8958-19.9043,44.1445-41.4635,65.5476-62.8785c19.7526-19.7637,39.6387-39.3694,61.9979-56.2173
		c20.4628-15.4189,40.5298-31.3096,60.1851-47.7489c11.2236-9.3872,22.9874-18.1342,34.6138-27.0311
		c4.3645-3.34,8.9484-4.3655,14.9001-3.3732c7.7437,1.2909,15.7922,1.395,23.8108,1.2019
		c10.052-0.2421,19.7875-2.5449,29.7516-3.1326c17.5989-1.0378,35.1279-2.6514,52.4912-5.9766
		c10.6768-2.0449,21.7662-1.5028,32.1819-5.5269c4.2885-1.6566,9.0367-2.1638,13.6034-3.0518
		c17.0463-3.3136,33.9575-8.2693,48.5466-17.1483c20.2928-12.3506,41.9413-21.6285,63.1079-31.984
		c13.4612-6.5857,25.9069-14.4948,33.9871-26.9528c8.2719-12.7537,15.8561-26.4232,12.0531-42.9635
		c-0.9729-4.2312-0.8789-9.8203-5.2961-11.1001c-3.9297-1.1385-6.7059,3.6061-9.2596,6.5491
		c-14.3867,16.5808-32.6741,28.1619-50.9337,39.7229c-5.6396,3.5707-12.2358,5.1813-18.903,5.9653
		c-1.7362,0.2041-3.4583-0.5946-3.5391-2.6084c-0.0546-1.3567,1.0471-2.4207,2.5013-2.702c3.2954-0.6381,6.332-1.8265,9.3129-3.4247
		c18.8871-10.1266,35.9644-22.7631,51.6447-37.2872c9.7819-9.0605,18.6184-19.0345,25.1896-30.702
		c4.42-7.8481,6.3065-16.1335,0.9285-24.5715c-4.8746-7.6482-8.6881-8.6434-14.3872-1.6875
		c-10.248,12.5082-22.9701,22.015-35.3221,32.1091c-8.3842,6.8517-18.6453,9.9719-27.6168,15.5577
		c-1.0847,0.6753-2.5126,0.91-3.8174,1.0934c-1.7333,0.2435-3.4364-0.1475-4.0895-1.9917c-0.7676-2.167,0.8423-2.7626,2.5028-3.3707
		c2.4865-0.911,5.1946-1.5974,7.3065-3.0895c17.363-12.266,35.7075-23.3975,50.0923-39.33
		c6.6006-7.3108,14.3284-13.8074,18.3317-23.3632c5.3851-12.8541,7.9606-26.0912,6.5675-39.9285
		c-0.4017-3.9905,0.2723-7.1997,2.6947-10.2006L1911.844,1552.118z M1345.7133,1880.3148
		c4.4633-2.3558,8.0315-5.8724,11.6727-9.2416c26.9694-24.9547,50.421-52.9994,71.9938-82.647
		c6.046-8.3092,13.1873-16.365,16.0089-26.266c4.0183-14.1001,10.2761-27.4139,13.723-41.6503
		c1.4305-5.9084,3.8199-11.39,6.8906-16.5353c4.127-6.9152,6.4839-14.5231,9.5612-21.868
		c6.6814-15.9479,11.5099-32.6061,18.5382-48.3605c4.7637-10.678,8.5708-21.6783,12.7406-32.5452
		c3.3422-8.7104,4.8082-18.0121,4.9141-27.4257c0.0802-7.1205-0.7354-8.2714-7.9934-7.954
		c-8.9468,0.3911-17.9785,0.145-26.7416,2.8129c-12.7942,3.895-26.3354,3.2009-39.3236,6.3569
		c-23.9092,5.8101-47.2135,14.0468-71.6504,17.7484c-9.871,1.4952-19.6998,3.3024-29.5057,5.1868
		c-20.9518,4.0266-41.4232,9.7468-61.6709,16.5476c-17.3405,5.8241-35.0676,10.6248-51.5419,18.6594
		c-13.5885,6.6273-25.3275,15.7587-34.3247,28.3075c-9.5486,13.3181-16.7914,27.8711-24.5073,42.2267
		c-10.7401,19.9818-19.7543,40.9133-27.1302,62.0782c-12.1161,34.767-23.1096,70.0557-29.3744,106.6194
		c-6.2334,36.3817-14.9989,72.2926-21.037,108.7382c-5.4406,32.8385-9.2626,65.8713-13.0161,98.9188
		c-3.4595,30.4587-2.8179,61.1621-5.1836,91.6919c-0.339,4.374-0.0547,9.3611,4.0656,11.7163
		c10.3143,5.8962,18.2014,15.7693,30.5527,18.3745c3.5204,0.7427,6.8097,2.6309,10.1696,4.0759
		c14.077,6.0542,28.1935,12.3792,43.1351,15.5759c10.8071,2.3123,21.2233,5.3015,31.5665,9.0229
		c14.1936,5.1064,28.8848,8.0247,44.035,7.7378c17.6498-0.334,35.2832-1.158,52.9501-0.251
		c6.9514,0.3572,13.8484,1.7859,20.9246,0.6824c5.7313-0.8943,9.4962-3.3623,12.4738-8.561
		c5.3525-9.3457,6.451-19.4248,7.2417-29.7681c0.8621-11.2776,1.4717-22.6279,3.2805-33.7698
		c4.9059-30.2202,10.4231-60.3408,15.6213-90.5144c1.6136-9.3665,0.9088-18.6624-0.6578-28.3385
		c-3.1478,1.2543-4.5516,3.1144-6.2007,4.7377c-7.353,7.2388-14.541,14.6729-22.2493,21.5176
		c-17.4219,15.4707-35.1969,30.5427-52.6801,45.9453c-25.9272,22.8416-48.797,48.9165-75.1931,71.2664
		c-1.2052,1.0205-1.7747,2.439-0.9858,3.4312c2.5339,3.1877,0.5619,4.457-1.8951,6.0984
		c-9.1624,6.1201-18.8842,9.3569-30.0803,7.2927c-17.3439-3.197-31.7344-11.1865-42.9312-24.9812
		c-3.5918-4.425-7.5531-8.4705-8.3821-14.427c-0.6029-4.3315-2.7535-4.9163-6.1627-2.5903
		c-4.3909,2.9956-8.7839,5.988-13.2009,8.9448c-1.9851,1.3289-4.3986,2.7217-6.2141,0.4502
		c-1.4923-1.8669-0.6421-4.5759,0.3853-6.5796c0.6892-1.3442,2.3754-2.1824,3.6284-3.2314
		c9.4514-7.9128,19.172-15.5723,23.6692-27.7498c0.5459-1.478,1.9076-2.686,2.9968-3.927
		c6.1333-6.9873,12.3569-13.8962,18.4415-20.9255c14.7938-17.0906,29.5519-34.2092,44.1217-51.4944
		c15.1946-18.0261,31.0789-35.5267,46.2949-53.5807c19.7476-23.4305,41.7764-44.748,62.5754-67.2067
		c12.67-13.6808,26.3351-26.1748,41.7518-36.9869c9.0544-6.3501,17.453-14.2754,24.0946-23.546L1345.7133,1880.3148z
		 M1464.7814,1725.6304c1.9321-1.5421,3.0331-3.0157,2.418-5.121c-0.0947-0.3242-1.1573-0.7451-1.4418-0.5735
		C1463.7773,1721.1307,1463.9235,1722.9535,1464.7814,1725.6304z M1712.7356,1962.929c0.2301-0.5642,0.5341-0.9816,0.5397-1.403
		c0.0079-0.5875-0.2072-1.1783-0.3269-1.7677c-0.2225,0.4135-0.6108,0.8204-0.6276,1.2421
		C1712.298,1961.5796,1712.5566,1962.17,1712.7356,1962.929z"/>
	<path d="M1284.0675,2249.915c2.0623,4.6436,0.3531,9.2168-0.4921,13.7087c-4.3267,22.99-6.0895,46.1536-5.0159,69.5166
		c0.1976,4.2996,0.9462,8.5737,1.4404,12.8596c-2.6666,0-5.3334,0-8,0c-1.7971-29.6565-0.965-59.1536,5.3555-88.3179
		C1278.181,2253.8726,1278.1068,2249.2866,1284.0675,2249.915z"/>
	<path d="M147.1645,1381.6335c-5.738-2.1362-11.0698-1.7063-16.2752-1.8503c-7.2047-0.1993-13.5621-2.2148-19.5313-6.4777
		c-24.6052-17.5713-46.59-37.6208-62.4601-63.7397c-3.1444-5.175-5.5866-10.6371-7.3291-16.3669
		c-9.2724-30.491-14.3092-61.5811-12.4466-93.5491c2.0733-35.5841,14.9171-67.2599,35.0937-96.2908
		c9.7216-13.9874,20.3564-27.166,32.7086-38.9237c8.0295-7.6431,17.5287-13.1597,26.9516-18.8179
		c8.5207-5.1163,16.8972-10.4728,25.9388-16.0974c-18.3831-18.7894-13.2988-40.2101-6.697-60.404
		c6.9112-21.1401,22.4351-34.9861,45.5015-39.5402c0.2227-3.9796-1.2172-7.338-2.0745-10.7488
		c-4.2789-17.0231-4.4109-33.623,4.778-49.3347c0.3349-0.5727,0.6607-1.1758,0.8463-1.8071
		c5.5513-18.8859,17.6693-32.1109,34.2858-42.3509c10.2483-6.3156,20.9942-9.9012,32.5997-11.5898
		c9.882-1.4378,19.7963-2.7274,29.7342-3.6913c19.7902-1.9194,38.4141,1.9079,55.6633,11.9967
		c7.3979,4.3269,13.044,10.2805,16.9097,17.9114c1.3408,2.6468,2.5435,5.3636,3.576,7.5537
		c2.0021,1.1078,3.2088,0.434,4.1425-0.4771c12.1917-11.8982,27.1531-17.3268,43.7244-19.9019
		c15.511-2.4103,30.9293-5.2131,46.6477-2.8019c21.9746,3.3707,41.0957,13.4359,58.3324,26.8636
		c22.1667,17.2685,41.2429,37.7921,58.1027,60.1884c10.6339,14.126,18.6608,29.9189,24.15,46.8321
		c2.494,7.6846,3.7807,15.4606,1.1978,23.5545c-1.0682,3.3474-2.2756,6.9737-0.7579,11.3552
		c16.9987-10.2675,36.3342-10.3205,54.9236-13.1829c20.9617-3.2278,40.8806,3.5532,60.884,8.4446
		c13.0004,3.1789,25.012,9.1777,36.8428,15.0762c15.7149,7.8349,27.9612,20.2354,38.4963,34.2418
		c18.1251,24.0973,29.9924,51.0172,35.83,80.5399c4.2178,21.3308,3.8441,42.364-5.4138,62.6206
		c-2.3484,5.1385-3.9263,10.6285-6.2593,15.7753c-6.0283,13.2981-14.9274,24.325-27.478,32.8748
		c2.4388,4.5242,7.2593,5.9518,10.3336,9.2489c10.3318,11.0803,19.0831,22.8905,23.0448,37.9775
		c5.4871,20.8958,12.95,41.2655,15.6475,62.884c1.3071,10.4753,0.317,20.5906-2.6327,30.6078
		c-8.5726,29.1125-26.8696,51.7729-48.3813,72.1704c-5.1742,4.9061-12.1254,6.5731-19.1366,7.7729
		c-23.2805,3.984-46.4757,1.9413-69.6796-0.625c-4.6365-0.5127-9.2699-1.0546-13.9063-1.5688
		c-3.8838-0.431-5.5894,1.304-5.161,5.192c0.6556,5.9493,0.8101,11.9988,2.0073,17.8357
		c4.5361,22.1161-2.1872,42.0145-10.9397,61.8131c-9.9587,22.5267-27.8252,37.7982-46.3457,52.6298
		c-4.5171,3.6176-10.0401,5.1559-15.2604,7.2966c-29.8678,12.2471-61.2603,15.2822-92.9984,13.4283
		c-14.4463-0.844-28.6814-4.8522-42.3902-10.5544c-19.928-8.2891-40.3241-15.4548-60.5382-23.0527
		c-5.9105-2.2216-12.2024-3.1099-18.0996-5.5712c-9.6219-4.0162-18.5457-9.0239-26.2793-16.0122
		c-2.9418-2.6584-5.4519-3.2129-8.6186-0.2725c-3.1608,2.9352-7.1696,5.0369-10.0229,8.209
		c-9.4359,10.4904-20.7224,16.3557-34.7368,19.5883c-18.4232,4.2495-36.9012,8.7823-54.9841,14.4089
		c-15.7219,4.8921-30.5113,2.0557-44.7348-3.8975c-17.9585-7.5161-32.6642-19.8765-47.2551-32.8353
		c-23.2505-20.6497-34.8503-47.395-44.5504-75.6001c-4.6983-13.6616-4.2562-27.473-0.7587-41.3364
		c3.7829-14.9946,10.2002-28.8212,18.2963-41.9226C143.1764,1392.5521,145.5249,1387.5376,147.1645,1381.6335z M574.0549,1000.0561
		c2.2707,0.4724,4.5476,0.9172,6.8107,1.4234c3.7828,0.8462,6.4926-0.6415,8.4011-3.8354
		c5.6805-9.5068,8.0546-19.7169,5.6755-30.6353c-4.4023-20.2046-13.8798-38.0432-26.2178-54.4438
		c-10.6315-14.1321-23.2413-26.4391-35.4197-39.2103c-12.948-13.5783-28.1772-23.1988-44.4736-31.5762
		c-18.1808-9.3463-37.342-13.6737-57.8464-9.789c-6.2087,1.1763-12.4355,2.3202-18.6988,3.1338
		c-19.5459,2.539-35.4528,10.6272-45.2893,28.5914c-1.5929,2.9092-4.1237,3.2668-6.1295-0.0659
		c-1.9104-3.1741-3.2711-6.4406-3.1098-10.3215c0.2502-6.0211-2.4279-10.9031-6.5424-15.1365
		c-13.3842-13.7709-30.5706-19.0819-48.8484-19.3581c-14.5224-0.2194-29.1777,1.0826-43.6758,3.724
		c-18.0516,3.2888-32.9563,11.97-46.3145,23.9615c-3.254,2.9211-5.9574,6.3124-7.7428,10.327
		c-3.5163,7.9063-7.1492,15.7701-10.3504,23.8043c-3.5132,8.8173-4.7188,17.947-2.638,27.4035
		c1.8581,8.4445,3.446,16.8653,7.7883,24.6091c2.6199,4.6723,0.3586,7.6883-4.9071,7.7586
		c-1.3088,0.0175-2.6609-0.2946-3.929-0.6709c-4.7848-1.4203-9.6322-0.6154-13.5961,1.6354
		c-16.4129,9.3198-29.7477,21.4558-32.1691,41.5297c-0.8717,7.2264-0.5054,14.6434-0.2358,21.9562
		c0.3557,9.6487,5.778,16.02,14.2567,19.9894c2.0973,0.9818,4.4095,1.494,6.5798,2.3336c2.0769,0.8033,3.1254,2.4357,3.0804,4.6519
		c-0.0454,2.2379-1.5573,3.5616-3.2389,4.7112c-1.4753,1.0084-3.1303,0.7289-4.8003,0.7654
		c-7.8784,0.1722-14.8805,2.5377-21.1221,7.6542c-4.6091,3.7781-9.8681,6.7169-15.0943,9.7036
		c-8.64,4.9377-17.1199,10.1731-24.6479,16.8989c-22.2543,19.8833-38.0376,44.3104-50.3005,71.155
		c-11.5525,25.2897-16.6026,51.738-14.1613,79.7119c1.3339,15.2847,3.5283,30.4374,5.9228,45.52
		c2.0783,13.0907,5.9847,25.964,13.0661,37.5037c12.1736,19.838,28.7182,35.7933,45.8251,51.209
		c10.9057,9.8276,23.0097,16.8647,38.4784,16.3517c5.2779-0.175,10.5846,0.8469,15.9419,0.812
		c4.9819-0.0323,6.9709,3.5242,3.7583,7.0936c-6.3316,7.0345-10.5929,15.3508-15.3946,23.2802
		c-16.6971,27.5724-22.1541,56.0879-10.0378,87.614c15.9671,41.5458,42.2847,72.7358,83.3198,90.7242
		c12.9766,5.6886,26.3886,8.9851,40.795,5.1782c16.0912-4.2521,32.3621-7.8207,48.4803-11.9756
		c15.6638-4.038,30.2405-10.0533,41.4422-22.5988c4.8478-5.4294,10.8027-9.8624,15.1307-15.8433
		c2.3723-3.2783,5.08-3.4048,6.9879,0.1678c7.1409,13.3715,19.6174,19.2615,32.9168,24.2412
		c25.2534,9.4554,50.6104,18.6674,75.5941,28.7949c11.5443,4.6797,23.168,8.043,35.4477,9.8855
		c12.7437,1.9119,25.2581-0.4764,37.8721-0.8562c20.5922-0.62,39.8658-6.7883,58.9252-14.0574
		c12.2963-4.6897,20.6096-14.3986,30.2704-22.4673c11.5392-9.6375,19.422-21.9578,25.3712-35.451
		c3.7373-8.4768,8.0748-17.1465,8.4857-26.5042c0.7858-17.8965,1.537-35.9058-5.1127-53.1937
		c-1.8392-4.7816,2.9469-10.5587,7.6627-9.1705c10.0317,2.9528,20.4294,2.833,30.618,4.3612
		c19.1381,2.8706,38.3658,4.14,57.6555,0.6882c8.7246-1.5613,16.765-4.2209,23.0809-10.7419
		c11.8519-12.2369,23.0845-25.0039,31.2144-40.0934c9.3265-17.3105,14.5305-35.1349,11.5253-55.5377
		c-3.1321-21.2638-9.9232-41.3828-16.0936-61.6622c-5.0733-16.6741-15.8904-29.8418-31.9415-37.9939
		c-4.8998-2.4885-5.848-6.0074-2.6121-10.3326c1.7642-2.3582,4.1073-4.4105,6.5215-6.1357
		c25.2411-18.0378,33.1789-44.9404,36.7892-73.5477c2.3851-18.8998-3.3743-36.9471-9.2484-54.7378
		c-7.6357-23.1261-20.0779-43.3602-36.2656-61.4707c-12.1534-13.5971-27.9084-21.2767-44.3311-27.9822
		c-22.9299-9.3624-46.2394-16.5582-71.5416-15.5816c-10.7549,0.4152-21.0636,2.8569-31.5954,4.2042
		c-11.0346,1.4116-20.5084,5.818-28.5352,13.1856c-4.7455,4.3559-10.8251,6.8538-15.9012,14.1705
		c0.1328-5.455-0.699-7.8724-3.9248-9.4598c-3.9699-1.9536-6.4158-5.6962-7.5261-10.1149L574.0549,1000.0561z"/>
	<path d="M958.1869,713.9272c-0.577,2.8419,1.0972,6.0364-1.5089,8.7872c-4.0591,1.7066-3.6282-5.6743-8.36-3.8119
		c1.5534,13.0247-1.6501,25.8911-3.7406,38.9038c-3.3679,20.9649-15.5272,36.3428-30.9808,49.7012
		c-16.1689,13.9769-35.7354,21.6127-56.2133,23.8657c-21.6528,2.3823-43.7503,5.0574-65.6647,0.7759
		c-2.5868-0.5054-5.2422-1.2762-7.545-2.5186c-14.923-8.0518-30.0804-15.6958-43.0889-26.8904
		c-8.559-7.3655-8.8468-7.262-18.0943-1.2618c-7.5306,4.8863-14.54,10.6283-22.2856,15.1198
		c-14.2803,8.2808-29.7943,12.5981-46.3853,13.7943c-25.789,1.8593-51.2887,0.0322-76.3265-5.8878
		c-21.3537-5.0488-42.4319-11.3248-62.1344-21.4225c-15.7695-8.0819-27.6759-19.2185-32.3946-37.1185
		c-1.8528-7.0288-4.6806-13.8492-6.9216-20.8243c-5.0745-15.7941-2.2538-30.2149,6.366-43.9116
		c3.8918-6.184,7.7592-12.3834,11.8775-18.9587c-3.4422-3.353-8.1701-2.5892-12.0538-3.5928
		c-23.1247-5.9761-43.1551-17.6973-60.9626-33.0631c-20.761-17.9143-38.7809-38.372-53.839-61.4485
		c-14.0631-21.5519-20.6787-45.1163-21.8027-70.6307c-1.2068-27.3955-0.4846-54.6507,5.4296-81.4931
		c5.2099-23.6457,14.8273-44.9461,35.8432-59.0758c3.6705-2.4677,3.6028-5.2141,1.9932-8.4521
		c-5.0833-10.2263-7.0558-21.4314-10.0359-32.2852c-3.9826-14.5046-2.2755-28.2885,6.8487-40.8709
		c5.7097-7.8738,11.8215-15.2782,19.4609-21.3326c14.8637-11.7797,28.8999-24.754,45.4875-34.1272
		c19.9869-11.2941,40.215-21.6027,64.2325-22.3854c19.3515-0.6307,38.5154-2.0373,56.8671,5.0929
		c0.6431-1.2491,1.1378-1.7926,1.1899-2.3757c0.5162-5.7771-3.5729-12.1852,1.466-17.2702
		c6.1206-6.1766,12.9996-11.3927,21.8358-13.4024c9.4736-2.1547,18.5336-0.7487,27.4282,2.6196
		c3.3928,1.2849,6.7254,2.7287,10.7761,4.382c1.9431-8.4952,2.4427-16.691,4.4586-24.6213
		c2.6384-10.3797,8.412-17.9501,17.0127-23.7243c17.1611-11.5215,35.7595-19.0497,56.5901-20.6657
		c20.9007-1.6214,41.7471-4.2005,62.6725-5.1799c28.0159-1.3113,55.9633-0.585,82.7401,9.6301
		c12.2008,4.6545,23.7197,10.5699,33.7501,18.9222c10.7197,8.9262,21.6544,17.618,31.0726,28.0566
		c6.3183,7.0028,11.2562,14.9081,16.0383,22.8617c7.896,13.1328,14.7257,26.8678,18.8562,41.735
		c1.606,5.7808,2.8372,11.664,1.2787,17.7444c-0.4061,1.5848-0.5999,3.3434-0.377,4.9509
		c1.5239,10.9891-1.0087,11.6138,12.0646,13.8329c16.0313,2.7211,32.1234,6.206,47.4897,11.4215
		c16.893,5.7337,31.2615,15.7176,41.2914,31.4522c13.6917,21.4789,25.2112,43.8346,31.444,68.6339
		c6.9783,27.7655,5.4384,55.4762-1.6947,82.9348c-1.746,6.7208-2.8558,13.646-5.9498,20.0741
		c-5.36,11.1358-13.8003,19.571-23.1614,27.0908c-6.0314,4.845-7.4358,9.8663-5.2626,17.3312
		c6.6094,22.703,11.9709,45.7411,14.4424,69.3075c1.6674,15.8997,3.0154,32.0887,0.3265,47.8004
		c-5.2781,30.84-19.7433,55.5753-50.6545,67.7181c-14.153,5.5597-28.2856,6.6921-42.6671,1.2045
		c-6.213-2.3707-12.394-4.8253-18.5895-7.2393c0,0.0024-0.3141-0.2865-0.3141-0.2865L958.1869,713.9272z M952.1311,707.8089
		l-0.1294,0.1138c1.6965-3.0497,3.8987-4.3521,7.3668-2.5307c3.5292,1.8533,7.1927,3.4491,10.7747,5.204
		c34.1205,16.7167,70.62-5.5036,83.1425-29.2717c7.9297-15.0507,12.8193-31.3588,12.4563-48.8886
		c-0.2212-10.672-0.7924-21.2779-2.0234-31.8701c-2.853-24.5452-8.0564-48.5408-16.7732-71.7026
		c-2.2261-5.9152-1.7659-8.2836,3.1426-12.8141c3.677-3.3939,7.5073-6.5488,11.6257-9.4261
		c6.3215-4.4165,12.0076-9.545,15.0924-16.914c11.9856-28.6317,15.9148-58.4979,11.5184-89.0562
		c-3.847-26.74-14.8746-50.9265-30.0096-73.2928c-12.3488-18.2488-29.2603-29.6838-50.4933-34.9881
		c-8.0791-2.0183-16.2012-3.873-24.2436-6.0269c-7.1675-1.9196-14.3918-2.4766-21.7673-1.9791
		c-7.4328,0.5013-10.1027-1.9758-10.2767-9.5177c-0.0534-2.3146,0.2332-4.6747,0.6661-6.9568
		c2.6344-13.8878,0.3693-27.2208-4.8924-40.0672c-8.7882-21.4568-20.5162-40.9349-37.4234-57.2507
		c-28.0311-27.0505-61.1959-42.3769-100.0842-43.7362c-33.6199-1.1752-67.1553,1.7441-100.5047,5.9396
		c-15.2257,1.9155-29.6276,6.6431-43.2275,14.4422c-13.1552,7.544-19.6002,18.4235-21.4014,32.8375
		c-0.7892,6.3157-1.1531,12.6028,0.9503,18.7954c0.5285,1.5558,0.8389,3.2578,0.8627,4.8982
		c0.0516,3.5448-2.0707,5.0063-5.103,3.3305c-2.6031-1.4387-4.8356-3.5308-7.3326-5.1817
		c-14.9478-9.8826-33.1837-12.7105-47.4816-1.5852c-4.8398,3.7658-6.6832,7.8853-5.634,13.7618
		c0.9494,5.317,2.8035,10.249,5.295,15.0027c1.08,2.0604,2.3572,4.4046-0.236,6.2243c-2.4196,1.6978-4.4959,0.2183-6.1758-1.4787
		c-4.8264-4.8755-10.8589-7.4485-17.1426-9.8707c-13.2198-5.096-27.016-4.3073-40.5262-3.4523
		c-27.6149,1.7475-52.0908,12.5873-74.7588,28.1261c-11.8606,8.1304-22.3005,17.9775-33.7536,26.5582
		c-8.1167,6.081-14.5561,13.5495-20.6949,21.4919c-7.792,10.0812-9.0483,21.2343-6.2772,33.1262
		c3.0991,13.2993,7.0989,26.3214,12.9394,38.7277c3.09,6.5636,2.7703,7.2411-3.6388,10.5207
		c-5.6632,2.8979-11.0524,6.1768-15.2137,11.1281c-6.6863,7.9555-11.9767,16.6918-16.1903,26.2526
		c-6.1647,13.9878-8.1709,28.8289-9.5671,43.7122c-2.3663,25.2245-2.9099,50.4753,0.7746,75.7131
		c1.8163,12.4407,6.1711,23.713,12.341,34.5305c15.705,27.5349,36.4857,50.6517,60.4943,71.1548
		c21.0764,17.9991,44.7407,29.868,72.5757,32.5827c3.1716,0.3093,6.0848,0.7296,7.0328,4.2947
		c0.8091,3.0428-1.0753,5.0414-3.1967,6.7846c-8.4399,6.9354-13.4046,16.4039-18.766,25.5954
		c-5.0852,8.7181-6.4818,17.8465-4.3301,27.8105c2.4819,11.4929,7.3183,22.075,11.584,32.894
		c3.7084,9.4055,10.6093,15.8724,18.9641,21.2217c17.9652,11.5021,38.4213,16.733,58.4218,22.7438
		c25.3711,7.6249,51.6076,9.4491,78.0854,8.3644c21.2006-0.8685,40.6364-6.3782,57.4333-19.796
		c7.2755-5.8117,15.6567-10.1174,22.3417-16.7739c3.0454-3.0325,6.6118-3.0219,9.4655,0.6814
		c11.0706,14.3665,26.3676,23.1478,41.7678,31.8419c6.8344,3.8584,14.1461,5.558,21.8935,6.1318
		c15.9796,1.1837,31.9908,0.6681,47.8941-0.3284c29.2039-1.8298,54.0162-13.7877,73.1932-36.0951
		c14.696-17.0948,18.6522-37.8094,17.6175-59.6822c-0.3282-6.9387-0.4962-13.9589-2.2553-20.7856
		c-0.6638-2.5761,0.625-4.5307,2.718-5.9318c2.032-1.3604,3.8333-0.2272,5.553,0.7715
		C948.5543,705.0082,949.4462,707.6731,952.1311,707.8089z"/>
	<path d="M2501.1838,1451.0787c-3.011-2.0072-4.0166-2.874-5.1736-3.4203c-29.0947-13.7373-52.7195-34.6755-74.3374-57.8539
		c-11.8357-12.6898-20.9746-27.7506-26.8345-44.1311c-9.3132-26.0319-17.3337-52.4403-16.5771-80.6917
		c0.5547-20.7173,2.9465-41.1257,8.1133-61.1713c3.1099-12.0653,10.012-21.6174,20.3184-28.7461
		c7.9163-5.4753,15.0305-12.0001,23.677-16.5533c16.3789-8.6249,33.8149-11.6821,52.0461-11.0609
		c6.0547,0.2064,11.7783,2.0874,16.9626,5.3591c1.6072,1.0143,3.0649,2.4647,5.5859,1.8779
		c-4.8721-24.16,2.189-45.9601,11.7314-67.5431c9.6018-21.7161,22.8318-40.3739,41.0623-55.7479
		c9.5947-8.0912,20.2207-14.0437,31.5195-18.9852c28.1775-12.3235,57.5488-21.0826,88.0676-24.3398
		c37.7153-4.0251,75.6709-5.7529,113.4053,0.1197c18.3577,2.8569,36.7341,6.146,53.9805,13.7382
		c23.5422,10.3636,45.5337,23.2244,65.1646,39.925c22.7019,19.3134,37.2617,43.9564,46.6648,71.9144
		c1.3789,4.1001,2.8228,8.2078,3.7612,12.4178c0.8982,4.0293,2.4456,5.6188,6.8853,4.4684
		c18.6228-4.8254,37.6455-4.593,56.5378-2.7979c25.0225,2.3777,47.6711,11.8541,68.1782,26.1722
		c26.1699,18.2722,45.6626,42.436,60.5789,70.4587c8.1152,15.2461,11.9421,31.756,13.3477,48.7573
		c3.04,36.7721-1.8425,72.4207-16.7009,106.4199c-5.8018,13.2755-15.1165,23.2729-28.334,29.5509
		c-7.9858,3.7928-8.0308,3.9521-5.3608,11.6248c12.8013,36.7878,8.0159,72.8033-4.896,108.3804
		c-4.4316,12.2106-9.4075,24.3191-16.8982,35.0029c-21.8008,31.0922-48.0554,57.074-84.8987,69.7627
		c-15.2024,5.236-30.895,6.6508-47.2336,5.5172c-17.1482-1.1899-33.5054-5.3186-49.6108-10.1837
		c-13.4243-4.0554-25.1506-12.338-34.5735-22.9595c-5.8948-6.6444-12.8032-12.6526-15.8118-21.1815
		c-3.4456-0.3438-4.2773,2.0667-5.5642,3.8979c-19.1001,27.1888-41.7275,50.7952-69.7661,68.9559
		c-10.1201,6.5547-20.8564,11.6947-32.3245,15.4357c-15.5183,5.0616-31.168,9.9214-47.2217,12.5776
		c-30.5417,5.0535-60.792,3.9032-90.7043-5.5831c-25.5564-8.1046-48.5625-20.2797-67.3533-39.335
		c-14.2676-14.4684-25.7334-31.3479-36.9761-48.2585c-5.2888-7.9551-7.2837-17.1259-8.291-26.4547
		c-1.1079-10.2631-1.9011-20.5623-2.6892-30.8566c-0.2959-3.864-1.0991-7.2896-4.9976-9.045
		c-17.458-7.8618-18.1255-23.2542-16.7322-38.9364c1.0237-11.5194,5.7937-21.8485,14.3882-30.0067
		C2495.46,1455.5194,2497.9011,1453.7639,2501.1838,1451.0787z M2681.2283,1680.3521c23.7771,0.9323,52.5627-7.5474,80.5017-18.5593
		c28.8433-11.3683,51.196-31.9766,71.1292-55.1627c8.8877-10.3384,16.8364-21.4784,25.4448-32.0649
		c4.718-5.802,5.2058-5.6255,8.2869,0.9321c12.543,26.6957,33.1748,43.4663,61.7056,50.8076
		c16.2708,4.1865,32.7429,5.7148,49.4937,5.0568c16.9148-0.6644,32.8445-4.8322,47.843-12.6921
		c17.6548-9.252,32.2087-22.3539,45.5728-36.8525c16.4927-17.8931,28.3845-38.6643,36.1262-61.6233
		c7.426-22.0234,9.4729-44.9097,8.2651-68.0525c-0.6152-11.7915-3.9421-22.9152-9.8533-33.1847
		c-0.9797-1.7024-2.5864-3.0453-3.5564-4.7515c-2.9709-5.2251-0.811-8.6392,5.2009-9.478
		c11.3203-1.5797,20.823-7.014,28.0178-15.7394c6.3826-7.7402,10.9119-16.6792,14.0225-26.3054
		c5.3516-16.5599,8.3381-33.5612,9.6736-50.8665c2.0706-26.8322,1.1926-53.307-10.2305-78.3845
		c-5.9766-13.1207-14.3291-24.8043-22.8813-36.2588c-7.76-10.3931-16.4885-20.1411-26.4724-28.4451
		c-12.0781-10.0459-25.6304-17.798-40.2317-23.8403c-32.2158-13.3318-64.6228-17.2727-97.5977-3.0433
		c-4.6633,2.0123-5.9231-0.1809-6.6653-4.0204c-1.1355-5.876-1.905-11.8624-3.5566-17.5928
		c-11.1873-38.8184-34.5947-68.6934-68.0466-90.7035c-25.8721-17.0229-54.3044-27.7031-84.7976-33.7224
		c-22.3813-4.418-44.8704-5.0911-67.426-5.2114c-15.6055-0.0833-31.1733,1.6506-46.7517,3.208
		c-38.5603,3.8552-75.0154,14.0859-108.9949,32.8207c-16.7556,9.2384-29.4768,23.3025-39.8054,38.6018
		c-10.9075,16.1561-18.897,34.2174-23.4697,53.6864c-3.5632,15.1711-2.5132,28.9546,5.7344,42.1759
		c1.5774,2.5284,3.0864,5.1641,4.1382,7.9357c0.8645,2.2793,0.5217,4.6196-2.1799,5.8718c-2.2041,1.0217-3.918,0.2408-5.2249-1.4817
		c-2.4277-3.2003-5.1741-5.9792-8.3582-8.5c-16.186-12.8151-34.4934-12.6866-53.2644-8.7031
		c-21.4175,4.5453-37.7139,17.5201-52.3296,33.0205c-2.7998,2.9695-4.6494,6.4265-6.0061,10.2524
		c-5.0344,14.2015-7.325,28.9362-9.0862,43.8298c-1.3833,11.6973,0.0474,23.2616,0.4963,34.8966
		c0.9153,23.7076,8.5969,45.7542,16.8975,67.4706c9.4792,24.8004,25.7849,44.8813,46.908,60.9811
		c16.9153,12.8927,33.0315,27.0453,53.6294,34.1698c4.0854,1.4128,8.1094,3.0051,12.2002,4.4016
		c2.7742,0.947,4.9624,2.3551,4.3032,5.6663c-0.5901,2.963-3.0171,5.2788-5.6628,4.397c-7.3325-2.4434-11.022,2.4601-15.4316,6.4259
		c-9.8982,8.9023-12.7998,20.0266-12.9734,33.119c-0.1575,11.9032,5.2969,18.7258,14.9531,23.4858
		c7.9275,3.9077,7.6863,3.7642,7.6482,12.087c-0.1204,26.2704,1.9949,51.7592,19.9973,73.3987
		c10.6479,12.7992,19.6882,27.2202,32.8054,37.5338C2594.384,1667.3041,2632.1289,1680.5708,2681.2283,1680.3521z"/>
	<path d="M2638.6284,374.8554c4.5681,1.1347,8.3796-0.6108,12.2046-1.0846c15.6292-1.9361,30.564,0.8246,44.7163,7.1345
		c18.0486,8.0472,33.7913,19.4686,48.3811,32.9582c11.0093,10.1792,22.3171,19.9085,31.4573,31.8797
		c14.5493,19.0551,27.5483,38.9717,38.5461,60.4165c12.5713,24.5137,21.8118,50.0092,27.0896,76.858
		c4.3259,22.005,5.0195,44.4127,1.2832,66.612c-3.7419,22.2335-14.9258,41.0792-29.2141,58.116
		c-9.2151,10.9878-19.5303,20.7023-31.8772,28.421c-15.2124,9.5098-31.4937,12.2068-48.7837,9.8485
		c-5.2878-0.7213-7.9866,0.1529-9.1414,5.581c-0.9646,4.5344-2.563,8.9512-4.1003,13.3434
		c-6.2781,17.942-17.5386,32.5187-30.3447,46.3053c-15.5615,16.7532-34.3516,28.6127-55.6194,35.6724
		c-23.2239,7.7089-47.0603,7.3372-70.5708-0.6486c-6.8979-2.3429-14.1846-3.5241-21.2566-5.3773
		c-19.5771-5.1302-37.481-13.66-52.6147-27.248c-18.3359-16.4631-36.335-33.1423-49.6951-54.3544
		c-11.429-18.1461-15.1777-38.1328-17.4614-58.7629c-0.1074-0.9718-0.1423-2.0268,0.1208-2.9481
		c0.4878-1.7057,1.6919-2.8969,3.5518-2.8065c1.4353,0.0698,2.5007,1.1093,2.7522,2.4957
		c0.7703,4.2521,1.7263,8.5103,2.0049,12.8054c1.7529,27.0024,14.8762,48.6757,32.1614,68.2543
		c6.5994,7.4749,14.1492,14.1068,21.21,21.1786c20.9443,20.9775,46.5088,32.7448,75.3557,38.1672
		c14.3862,2.7042,28.8022,4.8478,43.4143,6.1051c18.5964,1.6001,34.7148-5.0643,50.179-13.788
		c21.1882-11.9529,38.6277-28.0217,51.4932-48.9452c6.5747-10.6926,9.8699-22.4702,13.1838-34.3357
		c4.0703-14.574,2.4421-14.9858,17.6665-10.317c10.2019,3.1287,20.5876,2.3527,30.3828-1.5394
		c10.8167-4.2979,21.1511-9.6229,29.6777-17.9333c14.9111-14.533,27.2561-30.9049,36.0576-49.811
		c7.5186-16.1497,8.0845-33.576,7.9021-50.8527c-0.4395-41.6263-14.0881-79.6008-33.1091-116.057
		c-12.8945-24.714-28.7263-47.3651-48.6675-66.6783c-13.7998-13.3651-27.4929-27.2378-44.2576-37.1298
		c-16.3096-9.6235-34.2583-14.6935-53.0454-15.8456c-8.6106-0.528-17.2241,1.7467-23.8252,8.1578
		c-1.9114,1.8564-3.5786,5.1108-6.2817,2.973c-2.4521-1.9395-4.1338-5.678-2.1409-8.9125
		c3.6204-5.8759,3.9917-12.651,6.0244-18.9503c8.8542-27.4363,9.2773-54.6683-0.4136-82.2353
		c-7.4993-21.3326-18.0801-40.9136-31.644-58.6569c-19.1592-25.0626-44.7644-41.2427-74.9824-50.3781
		c-34.5894-10.4569-68.9541-8.3464-103.3372,0.8262c-4.1726,1.1132-8.4705,1.752-12.7007,2.6546
		c-24.5347,5.2346-44.5164,18.4707-62.6555,35.1927c-7.6401,7.0433-12.5168,15.4494-15.0327,25.3423
		c-0.5947,2.3387-0.8569,4.7119-3.5127,5.5021c-2.7297,0.8122-4.4375-0.9654-5.7498-2.946
		c-9.2617-13.9775-22.145-23.4517-36.8191-31.2225c-19.834-10.5032-40.1204-19.3476-62.5068-22.6929
		c-32.7317-4.8912-59.6509,4.6429-82.3916,29.3899c-17.2939,18.8199-30.4167,39.3989-37.9822,63.648
		c-5.6426,18.0854-6.7729,36.5417-4.4502,55.2994c1.7981,14.5234,2.5808,29.318,8.7842,42.8336
		c6.8525,14.9296,15.9294,28.324,30.1257,37.4215c2.4736,1.5853,4.124,3.3072,3.6963,6.4004
		c-0.3799,2.7494-2.2852,3.758-4.7278,4.3974c-20.3215,5.3199-29.4331,20.7504-34.0879,39.3333
		c-7.3528,29.3528-7.9246,59.3252-6.0603,89.3478c0.894,14.3974,5.0876,28.2225,10.0615,41.6209
		c8.689,23.4064,19.6548,45.8024,31.877,67.5994c7.7117,13.7529,16.4116,26.4066,29.3755,35.9526
		c13.6218,10.0302,26.5403,21.0802,41.8364,28.5839c26.2139,12.8594,53.8445,21.0212,82.9131,24.1583
		c14.1777,1.5301,27.8086-1.9869,41.5371-4.5589c27.1531-5.0867,49.4417-18.8019,68.3293-38.5543
		c3.0178-3.1561,5.4832-6.6057,7.3738-10.5949c1.4138-2.9842,3.979-4.6982,7.283-2.2091c2.8418,2.1409,1.9448,4.6089,0.1792,6.9536
		c-8.2295,10.929-16.6138,21.6991-28.4785,29.0825c-7.3503,4.5742-14.6228,9.2735-21.957,13.8742
		c-12.7251,7.9824-27.2417,10.3613-41.6045,13.1625c-18.262,3.5621-36.1348,1.7906-54.4397-1.5568
		c-21.5828-3.9469-41.6733-11.4092-61.1123-20.7579c-10.3916-4.9976-19.4399-12.72-29.3691-18.7612
		c-25.4407-15.4786-42.1482-38.2336-54.7566-64.5553c-5.7532-12.0105-11.6423-23.9467-17.1621-36.0776
		c-14.936-32.8259-21.2075-67.1188-18.7334-103.0449c1.3953-20.2595,2.5745-40.527,9.3735-59.9882
		c3.946-11.2942,10.0327-20.9254,19.1431-28.687c8.1638-6.955,8.6858-7.4764,1.4285-16.0475
		c-14.0059-16.5405-21.8005-35.4346-25.1541-56.7013c-5.8145-36.8725-3.0488-72.3453,14.9961-105.7619
		c10.772-19.948,25.4675-36.7654,43.1113-50.612c19.7651-15.5114,42.7517-20.1286,67.8015-17.6075
		c28.2563,2.8438,52.939,14.6828,77.2788,27.8709c6.4863,3.5145,12.1873,8.0943,17.2412,13.5035
		c2.033,2.1757,4.3613,4.0803,6.6025,6.0544c2.4214,2.1327,4.5352,2.3001,6.5208-0.7613
		c21.5999-33.303,54.572-48.1883,91.5779-56.7257c20.8364-4.807,41.8318-8.0933,63.2444-8.1947
		c29.6895-0.1405,57.4797,7.4216,82.5288,23.1031c14.5708,9.1219,29.2205,18.981,39.3247,33.3448
		c8.2124,11.6747,15.6792,23.9414,22.2146,36.718c10.7246,20.9668,18.2778,42.8739,18.9067,66.6051
		c0.396,14.9442,0.2681,29.9427-5.3955,44.2603C2639.5945,367.2287,2639.4072,370.9343,2638.6284,374.8554z"/>
	<path d="M1447.8608,664.9785c-7.9698-2.8887-14.528-2.6982-21.0774-2.6751c-2.4476,0.0086-4.9773-0.2699-4.953-3.4707
		c0.0386-5.0915-3.5762-5.8721-7.2725-6.4605c-3.6157-0.5756-7.2845-0.8113-10.9257-1.2342
		c-11.3287-1.3155-19.7976-6.9709-25.8607-16.6138c-12.3434-19.6309-22.6521-40.012-24.3215-63.6908
		c-0.2855-4.0493-2.4303-5.3105-5.9944-4.2463c-16.0101,4.7807-32.469,2.167-48.7112,3.0085
		c-8.3828,0.4343-16.6786-1.3581-24.6556-3.5966c-14.6904-4.1223-30.0969-6.3216-43.5464-14.1194
		c-24.1815-14.0204-42.0405-34.4485-57.2006-57.4914c-10.7024-16.2675-18.9526-33.4683-22.6154-52.8949
		c-3.0385-16.1158,0.2048-30.9491,9.0293-43.8005c19.0051-27.6777,44.0601-47.8851,77.1517-56.8294
		c15.7766-4.2642,31.672-7.8405,48.036-8.9066c8.2794-0.5394,16.558-0.8508,25.4847,1.1146
		c-0.6104-5.8011-4.1183-8.9785-6.8842-12.4254c-8.15-10.1571-15.7214-20.6516-21.39-32.4545
		c-4.5093-9.3891-7.1875-19.1817-8.7795-29.4985c-4.1276-26.7477,1.7358-51.5965,13.212-75.5092
		c3.0188-6.2902,6.0527-12.5562,9.5192-18.6605c9.4672-16.6712,23.9653-27.477,40.4401-36.0001
		c24.05-12.4423,49.3984-21.7311,75.6641-28.0614c23.6285-5.6947,47.7311-9.5368,71.8802-11.9652
		c22.5288-2.2654,44.3445,2.9612,65.2672,11.5961c15.7225,6.4888,31.5376,12.784,43.229,25.9899
		c0.5856,0.6615,1.7296,0.8286,2.988,1.3942c2.1278-4.9194,4.0226-9.7956,6.302-14.4849
		c10.0372-20.6492,26.9756-33.5138,48.0038-41.2279c9.0388-3.3159,18.5692-5.3466,28.2615-6.0528
		c16.2806-1.1862,32.5204-1.7592,48.901-0.8973c19.985,1.0516,34.3977,10.9308,46.7174,25.4489
		c10.4497,12.3144,19.449,25.3947,23.1606,41.442c1.1257,4.867,3.2981,6.0791,8.5314,4.5686
		c13.3306-3.8476,26.9901-3.6435,40.5896-1.0324c9.5123,1.8264,19.0857,2.6994,28.7791,3.0253
		c19.78,0.6651,38.8748,5.013,57.6337,11.2638c10.373,3.4565,20.754,6.4982,30.7506,11.2765
		c15.948,7.6231,29.5015,17.9995,40.2487,31.6803c11.5988,14.7647,19.7975,31.5698,24.6132,49.7772
		c5.9138,22.36,4.4083,44.7894-0.2897,67.1813c-3.8407,18.3058-10.431,35.7473-18.0391,52.6553
		c-5.16,11.4677-13.1946,21.5432-21.6143,31.0662c-4.4119,4.99-8.6704,10.1168-13.1244,15.0683
		c-10.3308,11.4846-21.8237,19.7033-38.7003,18.883c-8.1167-0.3945-16.5204,1.2939-24.8606,1.159
		c-3.7567-0.0608-7.3586-0.785-10.6125-2.445c-3.7977-1.9374-4.8593-5.3564-3.2823-9.3261c1.3116-3.3021,5.4106-4.2341,6.9293-1.209
		c3.5906,7.1518,9.7151,6.8795,16.141,7.1065c23.1847,0.8194,42.2889-6.9526,56.7002-25.6506
		c5.4767-7.106,12.0388-13.3177,17.3473-20.6367c17.3-23.8513,25.042-51.2663,29.8696-79.6998
		c4.5273-26.6647,1.5007-52.5026-10.9524-76.748c-15.677-30.5217-39.6373-50.807-73.0248-60.6215
		c-25.4446-7.4796-51.0294-12.5622-77.54-13.2572c-5.6082-0.147-11.2015-1.5489-16.7645-2.574
		c-10.2765-1.8936-20.5801-1.642-30.8745-0.4653c-4.9792,0.5691-9.6595,2.0505-13.9319,5.0263
		c-5.217,3.6338-5.8403,3.2742-8.3099-2.878c-0.7375-1.8372-1.4052-3.7618-1.7017-5.7078
		c-3.2238-21.1559-15.0405-37.3391-29.9261-51.703c-12.4447-12.0085-28.3898-14.0779-44.5128-14.5374
		c-15.9785-0.4553-31.8839,0.8127-47.8206,2.858c-26.516,3.4029-45.2004,17.9438-59.6755,39.0778
		c-5.2246,7.628-6.5623,16.6294-6.4097,25.7927c0.0275,1.6556,0.4376,3.3117,0.3911,4.9597
		c-0.0381,1.3453-0.6101,2.7691-2.0833,3.0771c-1.4205,0.297-2.4473-0.7921-3.1812-1.8763
		c-2.0515-3.0306-4.0922-6.0739-5.9933-9.1997c-6.1028-10.0336-14.9709-17.0832-25.3301-21.9581
		c-24.8817-11.7089-50.5145-20.7035-78.6466-20.0205c-11.1089,0.2697-21.6276,3.7473-32.5338,5.0038
		c-27.9077,3.2152-55.1757,9.3759-81.3712,19.497c-17.9841,6.9484-35.6216,14.7769-51.6625,25.8419
		c-9.637,6.6476-16.5612,15.3535-21.8792,25.4807c-8.2194,15.6524-15.5439,31.6756-19.6202,49.0205
		c-6.4347,27.3792-1.8234,53.0245,12.8843,76.633c8.4418,13.5507,18.8033,25.8006,30.1797,37.097
		c0.9418,0.9352,1.9762,1.8006,2.7858,2.8399c1.0657,1.3681,1.5364,2.9445,0.6338,4.6225c-0.879,1.6345-2.3412,2.3413-4.125,2.1939
		c-1.317-0.1088-2.6473-0.3621-3.9126-0.7457c-18.4824-5.6033-37.1266-2.6564-55.4999-0.0909
		c-16.4471,2.2965-32.8337,6.256-47.7256,13.9584c-20.733,10.7236-38.381,25.6717-50.9811,45.2875
		c-11.116,17.3055-11.5468,36.7533-4.0303,55.7228c13.2805,33.5167,33.7279,62.0449,63.4358,82.8251
		c19.7737,13.8314,42.7294,19.9063,66.7266,21.3947c10.6272,0.6591,21.3201,0.5745,31.9751,0.3837
		c10.9988-0.1971,22.0873-0.5245,31.4226-7.7226c1.7073-1.3163,3.5881-1.8301,5.54-0.6435
		c2.2672,1.3782,2.8217,3.4473,2.3531,6.0272c-4.3871,24.1584,3.8634,45.2396,16.0662,65.3154
		c6.5809,10.8271,15.9528,17.8549,28.6335,19.726c8.9564,1.3216,17.3317,4.6993,26.0806,6.7474
		C1439.5043,653.4548,1444.6334,656.4707,1447.8608,664.9785z"/>
	<path d="M1929.9492,876.0276c1.5637,1.1768,3.8436,1.7283,4.36,3.873c1.8644,7.7441,4.4546,15.4516,5.1143,23.312
		c0.7971,9.4948,0.4906,19.162-1.4932,28.6321c-4.0922,19.5356-3.0153,39.0995,1.625,58.2333
		c6.2739,25.8701,12.1724,51.6715,14.0863,78.3623c2.001,27.9034,8.0118,55.1627,15.786,82.0474
		c4.9884,17.251,10.1168,34.5167,13.8311,52.0618c2.5364,11.9808,5.1292,24.0079,6.7209,36.2395
		c3.2585,25.0405,7.6761,49.9292,11.015,74.9607c2.5569,19.1696,2.8383,38.2219-3.3179,57.1422
		c-8.1547,25.0631-18.5363,48.9962-32.1438,71.5586c-4.1637,6.9034-4.0205,6.9896,2.6836,11.6407
		c12.749,8.8451,14.7715,15.7181,10.4192,30.5007c-4.5859,15.5753-12.1598,29.1724-24.9354,39.2604
		c-6.7429,5.3245-14.4417,9.4384-21.7089,14.0989c0-0.0001,0.0709,0.162,0.0709,0.162c0.1255-1.724,1.1195-2.9585,2.0258-4.3849
		c6.2277-9.8029,17.2123-14.3264,24.7943-22.8771c8.1218-9.1597,13.1654-18.7406,14.1672-30.792
		c1.3209-15.8876-9.3436-25.282-24.3362-20.043c-8.126,2.8396-16.2866,5.3279-24.499,7.839
		c-12.9988,3.9746-25.6411,9.1099-38.4524,13.7039c-6.5768,2.3585-13.0421,5.3038-19.8203,6.7693
		c-16.6877,3.6077-32.3169,10.2076-48.0968,16.3075c-19.187,7.4174-38.0817,15.5929-57.0739,23.5099
		c-1.8457,0.7695-3.5359,1.8306-5.6411,1.7504c-1.4329-0.0548-2.6652-0.3512-2.9595-1.9817
		c-0.199-1.1033,0.412-1.9504,1.3326-2.3972c1.4834-0.7202,3.0114-1.3867,4.5809-1.8856
		c11.4421-3.6378,22.4333-8.3492,33.3888-13.2545c14.2457-6.3784,28.4347-13.2327,43.2802-17.8496
		c29.8972-9.2983,59.3876-19.6537,88.7537-30.4564c10.3535-3.8087,19.5006-8.2406,26.5485-17.6084
		c7.4446-9.8951,14.8485-19.6324,19.4539-31.1447c2.1096-5.2738,4.748-10.2091,7.2708-15.2579
		c7.8802-15.77,15.592-31.4386,15.7081-49.9346c0.189-30.1014-2.3434-59.9564-7.6444-89.4657
		c-5.411-30.1228-12.4697-59.9473-20.8192-89.4292c-1.1783-4.1606-3.0187-8.2618-3.4048-12.4954
		c-1.1896-13.047-5.0537-25.4052-8.3453-37.9795c-8.5074-32.4999-16.6517-65.0436-22.5728-98.2199
		c-4.4314-24.83-6.1519-49.4129-4.9814-74.4156c0.9642-20.5959,2.1754-41.197,1.229-61.8218
		c-0.1783-3.8872,1.3682-6.2795,4.1689-8.3621L1929.9492,876.0276z M1942.4503,1058.9226
		c4.2473-7.719,2.0673-22.0643-8.4525-56.6891C1936.7498,1020.6905,1939.5018,1039.1476,1942.4503,1058.9226z"/>
	<path d="M1828.9147,607.9301c-26.415-0.5343-52.1757-4.8101-77.3545-12.8506c-9.2478-2.9531-18.1516-6.524-26.1431-12.0332
		c-11.7537-8.1026-24.1881-15.285-34.4167-25.4874c-1.8245-1.8196-4.324-3.1775-6.7542-4.1312
		c-5.5448-2.1763-9.6139-0.376-12.0863,5.1916c-2.5984,5.8513-3.661,12.1013-4.0157,18.4494
		c-0.2136,3.8262-1.259,7.2142-4.1721,9.7969c-1.2869,1.1408-2.9669,1.7856-4.5634,0.8024
		c-1.7705-1.0904-1.5142-2.8251-0.5509-4.3361c5.6106-8.8011,5.6831-18.9623,7.0873-28.7814
		c1.0721-7.4977,1.6603-8.0438,8.9698-9.3602c7.6444-1.3766,13.6124,1.7359,19.0959,6.4591
		c10.5856,9.1177,21.4255,17.8841,33.2236,25.434c17.6143,11.2715,36.5771,18.9103,57.4498,21.1127
		c19.8495,2.0944,39.7323,4.3158,59.7463,2.4232c30.3918-2.874,47.5549-17.4659,55.6776-47.1182
		c3.2518-11.8705,6.8324-23.658,9.791-35.6003c4.3882-17.7129,1.3512-35.1092-3.9225-52.0602
		c-2.3723-7.6252-4.3676-15.3135-6.3446-23.0225c-0.4843-1.8889-0.4976-3.9505-0.3901-5.9142
		c0.0441-0.8072,0.8135-1.8408,1.5474-2.2855c1.3016-0.7886,2.6091-0.0851,3.5287,0.9125c2.3607,2.5605,3.0551,5.8936,3.6915,9.1336
		c1.9891,10.1249,4.8586,20.0359,7.1888,30.062c4.1927,18.0388,5.0553,36.1743-1.7963,54.0413
		c-3.333,8.6918-5.5579,17.7616-7.4354,26.9044c-3.7446,18.2335-14.2944,32.0856-28.9097,42.8754
		c-10.3617,7.6496-23.1412,7.8796-35.2877,9.1735C1837.6456,608.1602,1833.2025,608.0997,1828.9147,607.9301z"/>
	<path d="M1022.1819,742.8851c3.9717-0.7471,8.132-1.7743,12.4124-1.2752c8.0486,0.9385,11.7601,4.1287,14.004,11.8591
		c3.7419,12.8915,1.9664,23.9405-8.8253,33.2706c-4.8748,4.2145-9.2999,4.7113-14.4279,2.2003
		c-15.9781-7.8239-26.3592-31.6508-13.8233-46.9791c2.0803-2.5435,3.5967-5.5425,5.4568-8.2744
		c0.7537-1.1071,1.7918-1.9734,3.3077-1.6748c2.1255,0.4186,2.1452,2.0706,2.2855,3.7704
		C1022.757,738.025,1020.4642,740.0006,1022.1819,742.8851z M1043.7649,765.0182c-0.1007-0.0001-0.2014-0.0002-0.3021-0.0002
		c0-1.3185,0.0682-2.6412-0.011-3.955c-0.5989-9.9291-7.4191-14.7654-16.9053-11.8558c-6.1463,1.8851-10.3224,6.075-11.8337,12.2692
		c-1.7901,7.3371,2.1472,12.7997,7.1865,17.411c3.1064,2.8426,6.4455,6.3373,11.3334,4.2505
		c5.3868-2.2998,9.5294-6.0116,10.4855-12.1891C1044.0173,769.0158,1043.7649,766.9974,1043.7649,765.0182z"/>
	<path d="M1220.9882,788.6361c7.9346,2.9522,11.0172,6.8137,10.0367,14.2287c-1.5909,12.0324-7.0205,22.1008-17.2125,29.0986
		c-5.8558,4.0206-11.438,3.462-15.9929-1.9482c-6.4904-7.7093-9.597-16.7952-7.5017-26.8293
		c0.8402-4.0239,1.7795-7.6085-0.0516-11.532c-1.0261-2.1982-0.7861-4.6163,0.8044-6.5862
		c1.6012-1.9827,4.2383-3.6462,5.3889-0.4545c1.7888,4.9618,4.6971,4.7086,8.5022,3.3793c0.3059-0.1068,0.6598-0.1356,0.9862-0.1157
		c3.0936,0.1884,7.4752-1.6202,8.2606,3.0088c0.7627,4.4962-3.3909,5.0898-6.7007,5.4778
		c-6.0891,0.7137-9.573,3.8303-10.4974,9.9939c-1.0018,6.6799,0.6632,12.7385,5.088,17.511
		c3.1741,3.4236,7.3191,1.8837,10.9503-0.3602c12.353-7.6337,15.4142-20.3916,7.9702-33.2031
		C1220.776,789.8868,1220.9882,789.2042,1220.9882,788.6361z"/>
	<path d="M913.3838,1231.6051c-0.0507,9.8577-5.0369,15.5022-15.4235,17.4602c-10.0607,1.8966-18.2141-2.4757-21.3693-11.8085
		c-2.7281-8.0692-1.4312-16.4783-1.2754-24.7308c0.0859-4.5514,4.1826-5.808,7.8513-6.2522
		C902.2398,1203.9644,913.4293,1218.1201,913.3838,1231.6051z M887.7246,1212.5743c3.5358,5.5729,0.0834,7.3298-2.4007,10.0071
		c-5.3699,5.7875-1.9008,18.8002,5.3495,20.4246c5.5643,1.2467,10.4993-0.9862,14.4299-4.8151
		c3.269-3.1843,2.9534-8.7595,0.49-13.8669C902.3784,1217.6588,896.2664,1215.4626,887.7246,1212.5743z"/>
	<path d="M2164.0737,762.2281c-1.2871,9.3684-4.9766,19.3053-10.9158,28.1536c-4.6516,6.9299-11.4172,6.4553-16.1567-0.3848
		c-3.7031-5.3445-5.2639-11.398-5.5115-17.8456c-0.1392-3.6266,1.0474-9.0698-0.8328-10.5431
		c-6.4465-5.0513-1.1743-6.8004,1.7139-9.2485c2.5229-2.1385,5.4077-3.843,8.0313-5.8704
		c9.3694-7.2408,20.105-3.3735,23.0208,8.4174C2163.8938,756.8108,2163.7942,758.856,2164.0737,762.2281z M2158.0657,764.1985
		c-0.0483-4.6454,0.4436-9.5427-5.4248-11.4518c-5.0969-1.6582-9.7969,0.5215-13.2239,6.1848
		c-3.9116,6.4641-3.1492,20.369,1.4609,26.6357c2.9189,3.968,6.5813,4.1194,9.7039-0.1917
		C2155.1143,779.1178,2158.2119,772.1897,2158.0657,764.1985z"/>
	<path d="M2214.7319,1323.2933c14.1914-0.2441,20.0059,5.6746,19.5168,16.4995c-0.342,7.5747-3.0681,14.0935-8.3486,19.6311
		c-6.731,7.0586-14.23,8.0884-22.1343,2.6556c-9.168-6.3013-11.2842-15.8945-6.8867-23.0988
		C2201.9211,1330.7206,2207.2764,1323.5441,2214.7319,1323.2933z M2228.8967,1340.8987c-0.1038-3.9844-0.6086-4.2782-6.1892-4.1692
		c-0.6245,0.0122-1.4578-0.0211-1.8511-0.3947c-5.949-5.6533-10.6128-0.7874-14.8984,2.2942
		c-7.1721,5.1572-6.9312,11.5969-0.0173,17.2429c6.4194,5.2423,11.6108,4.7794,17.5857-0.7866
		C2227.9197,1350.993,2227.7454,1345.594,2228.8967,1340.8987z"/>
	<path d="M999.1082,1229.7524c-2.3929,0.0447-4.5508-0.7135-6.6102-1.8699c-10.5391-5.918-15.6587-22.533-9.9452-33.051
		c2.0479-3.7699,4.3668-8.0226,9.9124-4.1821c1.8131,1.2556,3.7321,0.35,5.6886,0.0513
		c11.4633-1.7505,17.6884,2.8427,19.4762,14.1556C1019.4927,1216.6433,1009.4173,1230.1876,999.1082,1229.7524z M1011.8636,1208.082
		c-0.1072-6.955-4.7297-11.5822-11.2347-11.2463c-6.4305,0.3318-13.4616,6.2344-13.3012,11.166
		c0.2287,7.035,6.5586,15.1945,11.9455,15.3981C1005.9207,1223.6508,1011.9898,1216.2671,1011.8636,1208.082z"/>
	<path d="M2081.5881,795.567c3.821-5.2589,0.9858-9.0698-1.2512-12.516c-2.2859-3.5215-2.2805-6.6439-0.6506-10.2331
		c1.365-3.0056,2.4761-6.129,3.6462-9.2204c2.7827-7.3513,6.6448-9.9816,13.771-9.3249c6.0847,0.5606,9.7495,4.666,11.4097,11.8538
		c1.9822,8.5823,0.6189,16.275-4.5105,23.4872c-3.4133,4.7997-7.5327,7.639-13.4434,5.6696
		C2087.7805,794.3574,2085.4163,795.6213,2081.5881,795.567z M2104.2166,774.2823c-0.3645-1.9562-0.6025-4.2755-1.2561-6.4711
		c-0.7554-2.5367-1.7417-5.0169-4.9712-5.498c-3.48-0.5184-5.5574,1.4172-7.4636,3.8635c-2.3528,3.0194-2.8215,6.7417-3.302,10.2523
		c-0.835,6.101,1.9514,12.158,5.2346,12.8561c4.2666,0.9073,9.7712-4.3539,11.1599-10.7256
		C2103.8979,777.2756,2103.989,775.9506,2104.2166,774.2823z"/>
	<path d="M2271.2451,1377.3123c0.801-12.3452,11.3994-17.0261,19.0024-23.9355c3.2537-2.957,7.6418-1.4512,11.4404-0.5922
		c2.2361,0.5057,2.9241,2.6759,1.7593,4.7509c-2.1335,3.8-1.1968,7.7494-0.8379,11.6575c0.5974,6.5062-1.498,12.3748-3.9023,18.2292
		c-1.9207,4.678-5.2507,5.5018-9.6501,3.9492c-6.8311-2.4104-11.6299-7.4244-16.2642-12.6539
		C2272.2769,1378.249,2271.761,1377.7806,2271.2451,1377.3123z M2297.301,1373.7123c-0.5833-2.4973-1.2339-5.7164-2.1377-8.8627
		c-0.2373-0.8267-1.1294-1.7278-1.9434-2.0804c-3.4163-1.4803-13.8647,6.2499-14.0085,10.2632
		c-0.1821,5.0972,6.2805,12.016,11.2656,12.0605C2293.8752,1385.1233,2297.1572,1379.9908,2297.301,1373.7123z"/>
	<path d="M1120.0917,800.14c-1.9165,4.2126-2.6091,8.9536-5.8419,12.6039c-5.6448,6.3737-12.5602,6.5571-17.8639-0.0645
		c-4.2909-5.3573-6.6851-11.2733-4.8232-18.5446c2.2937-8.9581,6.7321-16.4821,12.8406-23.3158
		c3.4369-3.8449,7.4861-4.165,11.7782-3.1052c3.9232,0.9689,5.9471,4.1519,6.4243,8.0812c0.696,5.7327,4.149,11.7611-1.8723,16.7314
		c-0.4241-4.2169-0.3354-8.8176-1.4475-13.1071c-1.6611-6.408-6.6493-7.4714-10.7618-2.3378
		c-5.605,6.9968-11.4369,14.0344-10.3156,24.0417c0.4672,4.1698,1.3804,8.2841,5.5153,9.937
		c4.3248,1.7287,7.6223-1.0776,10.4436-4.1203c2.017-2.1752,3.1549-5.1307,5.9031-6.6616L1120.0917,800.14z"/>
	<path d="M2354.1147,1378.0576c6.7188,0.22,13.3535,1.8514,18.9277,6.5383c1.5186,1.2766,3.833,3.1497,3.0374,4.749
		c-2.7542,5.5361-3.448,12.2988-8.1848,16.5859c-4.2979,3.8901-8.4736,8.0782-15.0503,8.8286
		c-11.9497,1.3634-18.8293-6.365-19.8979-17.0699c-0.9863-9.8804,7.7104-19.5342,17.8257-19.9125
		C2351.7561,1377.7402,2352.7485,1377.9362,2354.1147,1378.0576z M2352.8748,1383.2476
		c-5.1536,0.3269-11.5339,0.1255-13.8074,6.5876c-1.9155,5.4448-1.3088,11.4052,3.2212,15.7366
		c4.1443,3.963,9.2739,4.8126,14.7202,2.5845c5.7517-2.3529,10.823-5.3289,11.1045-12.5242
		C2368.4102,1388.0425,2362.8223,1383.3562,2352.8748,1383.2476z"/>
	<path d="M1066.2042,1169.642c4.0974-4.6064,7.5588-6.603,12.7031-5.2354c10.8035,2.8724,16.7249,12.65,14.3928,23.6807
		c-1.4026,6.6334-3.7086,12.7922-8.2063,17.9208c-5.8715,6.6948-13.1338,6.275-18.4534-0.9122
		c-5.4407-7.3508-6.0344-17.3578-1.3885-23.2264c1.5114-1.9093,3.35-3.8002,5.7959-2.2223
		c2.1678,1.3986,0.8752,3.5867-0.1268,5.2916c-3.1527,5.3643-3.5018,10.6548,0.1917,15.9092
		c2.2238,3.1633,5.3136,4.425,8.6283,2.3484c6.5299-4.0912,8.8954-10.1989,8.2443-17.9218
		c-0.6022-7.1422-2.5662-12.71-9.9568-15.6647C1074.3392,1168.135,1070.9922,1170.3782,1066.2042,1169.642z"/>
	<path d="M2072.7283,787.2086c0.0315,6.3851-1.0405,12.5386-4.1299,18.1494c-2.7468,4.9888-5.5925,5.6888-10.6394,3.1705
		c-10.8284-5.4034-15.5005-22.6533-8.8704-32.75c2.5549-3.8909,11.1565-6.5857,16.0686-5.0342
		c4.6772,1.4774,7.3394,5.5045,7.5615,11.5162C2072.7798,783.9077,2072.7283,785.5591,2072.7283,787.2086z M2053.802,785.952
		c0.3181,5.7716,0.7019,10.7032,4.3367,14.6914c3.0735,3.3726,5.4324,3.1697,7.3784-1.1072
		c1.9465-4.2773,2.6982-8.8956,2.374-13.5763c-0.3782-5.4563-2.782-8.0126-6.9624-7.9006
		C2056.0535,778.1899,2053.7888,780.9487,2053.802,785.952z"/>
	<path d="M1931.9915,1537.951c-6.7157,4.7223-13.4314,9.4446-20.1472,14.1669c-0.0002,0.0001,0.2484-0.1201,0.2485-0.1202
		c-1.8857-2.1836-2.8848-4.1941-0.2095-6.7327c3.6262-3.4409,8.4709-5.1527,12.0435-8.3273
		c3.933-3.4948,5.5829-0.0055,8.1356,1.1754L1931.9915,1537.951z"/>
	<path d="M2272.7927,1378.7174c-0.7134,0.9237-1.3013,2.8542-2.6455,1.7809c-1.0686-0.8535,0.1311-2.2887,1.0984-3.1858
		C2271.761,1377.7806,2272.2769,1378.249,2272.7927,1378.7174z"/>
	<path d="M1120.0704,800.2784l0.1288-0.3868c0,0-0.1222,0.2436-0.1149,0.246S1120.0704,800.2784,1120.0704,800.2784z"/>
	<path d="M1692.6569,988.3048c-1.5332-10.9341,2.6234-21.5094,11.2642-30.9681c5.3818-5.8915,10.2203-12.3062,16.6393-17.1136
		c8.2931-6.211,17.5181-8.1995,28.0725-7.4435c14.6531,1.0496,27.2076,8.111,40.7714,12.202
		c4.6456,1.4011,7.8322,5.5609,9.5568,9.756c9.2871,22.5924,13.0331,46.0651,7.0144,70.0405
		c-7.4791,29.7932-40.8938,45.927-70.4626,36.4561c-7.5439-2.4163-14.4854-7.662-19.3568-13.5765
		c-7.5276-9.1395-13.7976-19.4714-19.0955-30.2099C1692.8053,1008.8224,1692.8197,999.4343,1692.6569,988.3048z M1776.5856,951.3805
		c-6.4625-5.0464-13.6859-6.0975-20.8282-7.4976c-31.0298-6.0824-57.8236,20.1187-51.9939,50.9741
		c1.1729,6.2072,2.7878,12.3302,3.9956,18.5316c1.3129,6.7413,4.8833,12.1696,8.8599,17.6292
		c7.2983,10.0208,17.7872,14.696,28.9087,18.4138c25.4512,8.5079,47.7009-6.5131,53.1528-30.6913
		c3.2977-14.6243,0.5842-29.1979-2.0103-43.5693c-0.7277-4.0303-3.1659-8.5015-7.97-11.5507
		c-1.1404,6.4494-0.2032,12.2391-2.5284,17.5267c-2.6764,6.0854-9.8401,9.8468-17.3856,8.9676
		c-6.1368-0.7151-10.5331-4.9234-10.8574-12.2822c-0.5847-13.2572,1.2925-24.4471,16.9684-24.9781
		C1775.1415,952.8461,1775.3729,952.4578,1776.5856,951.3805z"/>
	<path d="M1809.1927,998.0958c2.6978-15.7932,0.9796-32.3145,8.5042-47.613c4.6353-9.4244,10.6045-17.3657,19.9323-21.3156
		c25.8135-10.9308,50.4908-8.3841,61.6248,22.3362c9.9343,27.4107,11.7504,54.9844,1.1138,82.6845
		c-2.8745,7.4858-6.6589,14.4969-11.9139,20.5979c-9.2242,10.709-23.9099,14.5458-37.1104,9.5039
		c-18.7626-7.1664-32.3356-19.1764-37.0045-39.687C1812.3501,1015.866,1809.7209,1007.2828,1809.1927,998.0958z M1818.1421,997.9883
		c2.2201,22.0912,5.4425,43.6283,29.3855,54.3113c20.4207,9.1112,33.7616,2.6238,42.8093-13.7123
		c7.2963-13.1737,9.8317-27.3974,9.5814-42.2509c-0.078-4.6365,0.7998-9.6043-1.3167-13.7942
		c-4.114-8.1442-4.9338-17.1474-7.6627-25.5906c-5.4102-16.7388-15.691-24.0075-30.7382-22.7216
		c-2.3201,0.1983-5.4016-0.0984-6.2745,2.1861c-2.062,5.3959-7.0676,6.6286-11.2263,9.1257
		c-4.6447,2.7891-8.682,6.4258-11.3699,10.9998C1823.8668,969.2421,1817.7986,982.4968,1818.1421,997.9883z"/>
	<path d="M1772.0337,913.1638c-2.4683,1.8914-5.2206,1.1072-7.6749,0.6224c-20.2754-4.005-40.4568-0.2626-60.6143,0.9783
		c-6.3801,0.3927-12.5652,3.9827-18.8358,6.1201c-7.6913,2.6216-7.7185,2.6381-10.8207-5.0814
		c-1.3621-3.3893-2.6492-6.8124-3.8469-10.2631c-2.3141-6.6663-1.4379-10.7743,4.8954-12.7939
		c14.2643-4.549,28.074-11.8032,44.203-6.17c9.946,3.4736,20.6265,5.1949,31.1239,6.6272
		c8.3352,1.1372,14.3749,4.4148,17.902,12.0885C1769.5701,907.9131,1772.4178,909.7839,1772.0337,913.1638z"/>
	<path d="M1877.0496,1180.5599c0.4514,24.5819-4.6338,48.3252-11.5431,71.6851c-1.9501,6.593-5.6531,12.728-9.0165,18.8165
		c-1.6323,2.9547-4.5457,3.9994-7.4082,0.9766c-13.8687-14.6456-31.2937-19.1438-50.7585-17.8486
		c-0.9955,0.0663-1.9819,0.2594-2.9766,0.3483c-2.83,0.2532-5.8243,0.0107-6.054-3.4408c-0.2048-3.0764,1.3264-6.0425,4.6376-6.8854
		c2.1884-0.5574,4.6376-0.3706,6.9379-0.1632c16.3578,1.4749,32.399,4.3052,46.4648,13.4656
		c4.2068,2.7399,5.5907,0.9296,7.4989-2.4663c6.0031-10.6827,7.6703-22.6793,10.2197-34.3014
		c7.9513-36.2461,5.444-72.1071-5.6947-107.3954c-1.1851-3.7548-2.8936-7.62-5.3335-10.6494
		c-6.2498-7.7593-12.2178-15.8651-20.0474-22.1791c-7.1548-5.7699-14.7031-10.6018-24.5905-6.6019
		c-1.1913,0.4819-2.6802,0.5112-3.6277-0.761c-1.1611-1.5591-0.8302-3.3878,0.1903-4.6334
		c3.1914-3.8954,7.4735-6.0031,12.3917-4.3687c10.6771,3.5481,21.5437,6.4774,27.8982,17.6256
		c3.384,5.937,8.9531,10.6855,13.8152,15.6996c2.4113,2.4868,4.1411,5.1304,4.9723,8.4535
		c5.8127,23.2389,11.8469,46.4385,12.0228,70.6361C1877.0581,1177.9012,1877.0496,1179.2306,1877.0496,1180.5599z"/>
	<path d="M1664.6141,1351.8915c1.1572,0.8174,2.49,1.3562,3.2278,2.3409c10.2013,13.6191,25.9604,16.5852,40.783,21.1656
		c14.9718,4.6265,30.4088,3.8379,45.5374,1.5233c17.3734-2.6578,34.5018-6.882,51.7853-10.1709
		c19.5054-3.712,39.0173-3.7064,58.4443,0.7603c0.9727,0.2236,1.9937,0.2865,2.9312,0.604
		c3.2141,1.0891,7.0334,2.3846,5.4152,6.6605c-1.4607,3.8591-4.8807,3.3063-8.4557,2.0166
		c-20.1031-7.2532-40.645-6.2355-60.9448-1.5854c-24.322,5.5714-48.5116,12.9806-73.5883,12.1095
		c-23.3114-0.8097-46.577-4.342-64.0863-22.7321c-2.0698-2.1741-4.3785-4.2548-4.7318-7.416
		C1660.6456,1354.6132,1661.8005,1352.749,1664.6141,1351.8915z"/>
	<path d="M1836.8071,904.5158c6.6952-6.1085,18.9778-12.0633,26.0637-12.1504c12.9293-0.1591,25.8629-0.1428,38.7928-0.0074
		c6.5857,0.0689,11.1741,4.2255,12.1874,10.515c0.724,4.4935-3.2925,5.2166-5.7754,7.063c-1.9543,1.4534-4.264,1.4019-6.6683,1.0426
		c-20.9733-3.135-41.9674-6.0746-63.2731-5.3305C1837.7051,905.6631,1837.2491,904.9114,1836.8071,904.5158z"/>
	<path d="M1815.6198,1596.0397c28.1062-11.9575,54.1526-24.8588,78.6512-40.7549c3.1602-2.0503,7.3658-6.4647,9.7969-2.3715
		c2.1029,3.5409-4.3087,4.7528-7.0276,6.7671c-16.8717,12.4996-35.3167,22.4005-53.9117,32.0149
		c-4.994,2.5823-10.2269,4.6986-15.3079,7.1178C1823.3693,1600.9323,1819.6831,1600.1455,1815.6198,1596.0397z"/>
	<path d="M1437.9668,1117.671c-0.4037,2.2639-0.8782,6.231-1.8561,10.0698c-1.1603,4.5548-3.7653,7.2572-9.0676,7.6078
		c-3.5553,0.2351-8.8713-1.1188-10.1189,4.0358c-1.2668,5.2338-0.5582,10.5952,3.4324,14.9034
		c0.2252,0.2432,0.5018,0.4392,0.7223,0.686c1.5896,1.7791,5.74,2.9238,3.23,5.9679c-2.3353,2.8323-5.4989,0.6689-7.9591-1.1274
		c-5.8311-4.2574-8.8468-20.5063-5.1879-26.6812c2.4103-4.0675,6.5336-4.1823,10.3445-4.9408
		c7.1547-1.4242,9.0286-2.9847,9.7748-8.7821c0.8651-6.7217-1.8314-11.9792-7.5736-14.3942
		c-3.355-1.4109-6.9568-2.3286-9.7164-4.8606c-1.0433-0.9572-1.3513-2.439-0.5247-3.6049c0.4819-0.6796,1.6445-1.1758,2.5299-1.2245
		C1427.5028,1094.693,1437.8776,1104.49,1437.9668,1117.671z"/>
	<path d="M1345.8984,1880.1548c-4.9391-2.0448-6.7423-5.5483-6.3979-11.0153c1.3848-21.9791-3.6128-42.826-10.9982-63.4148
		c-4.3677-12.1761-6.8104-25.0303-10.4811-37.4728c-3.1926-10.8226-5.7437-21.8982-11.6039-31.7968
		c-1.1903-2.0106-2.8048-5.2532,0.9507-6.5228c3.3862-1.1447,4.261,1.6523,5.3381,4.3314c4.6,11.4409,8.3041,23.147,11.3375,35.0909
		c2.5227,9.9331,6.2042,19.2112,11.3353,28.3359c5.6371,10.0239,7.1019,22.0441,9.2756,33.4778
		c0.8694,4.5731,0.8273,9.3771,2.1377,13.798c3.5494,11.9738,2.0956,23.6477-1.0751,35.3439
		C1345.7133,1880.3148,1345.8984,1880.1548,1345.8984,1880.1548z"/>
	<path d="M1316.0551,2208.9377c-5.4521,11.8164-6.3794,11.5664-16.243,6.8794c-18.5579-8.8184-37.5267-16.7617-57.0492-23.2908
		c-8.8608-2.9636-17.7671-5.3738-27.2775-4.594c-2.2548,0.1848-5.2601-0.1333-5.3057-3.1587
		c-0.0519-3.4348,2.2939-5.5029,5.8453-5.3767c5.6357,0.2002,11.3356,0.0159,16.8311,1.603
		c5.1014,1.4729,10.2827,2.7813,15.2145,4.7104c18.5292,7.2493,36.99,14.675,55.4296,22.1506
		C1307.4948,2209.4805,1311.2545,2211.8667,1316.0551,2208.9377z"/>
	<path d="M574.1854,999.922c0,0-0.1333,0.1385-0.132,0.1363C574.0549,1000.0561,574.1854,999.922,574.1854,999.922z"/>
	<path d="M1857.9474,969.6914c0-1.9874-0.1813-3.9946,0.0341-5.9583c0.6362-5.8001,3.344-8.0216,9.2848-7.85
		c9.8977,0.286,16.5542,8.5545,16.4056,20.3785c-0.1108,8.8273-5.6843,16.5433-12.257,16.9686
		c-6.7729,0.4382-11.778-4.9116-13.349-14.6207c-0.472-2.9174-0.3202-5.9358-0.4541-8.908
		C1857.7236,969.6982,1857.8356,969.6948,1857.9474,969.6914z"/>
</g>
</svg>
